<?xml version="1.0" encoding="UTF-8"?>
<svg id="Layer_1" data-name="Layer 1" xmlns="http://www.w3.org/2000/svg" viewBox="0 0 768 512"><metadata><c2pa:manifest xmlns:c2pa="http://c2pa.org/manifest">AAAsZ2p1bWIAAAAeanVtZGMycGEAEQAQgAAAqgA4m3EDYzJwYQAAACxBanVtYgAAAEdqdW1kYzJtYQARABCAAACqADibcQN1cm46dXVpZDpiY2JhNDBlZi0xZTRjLTQzN2YtOGRkYi1hNDk2MTE5NjVkMWEAAAABp2p1bWIAAAApanVtZGMyYXMAEQAQgAAAqgA4m3EDYzJwYS5hc3NlcnRpb25zAAAAAMpqdW1iAAAAJmp1bWRjYm9yABEAEIAAAKoAOJtxA2MycGEuYWN0aW9ucwAAAACcY2JvcqFnYWN0aW9uc4GjZmFjdGlvbmtjMnBhLmVkaXRlZG1zb2Z0d2FyZUFnZW50bUFkb2JlIEZpcmVmbHlxZGlnaXRhbFNvdXJjZVR5cGV4Rmh0dHA6Ly9jdi5pcHRjLm9yZy9uZXdzY29kZXMvZGlnaXRhbHNvdXJjZXR5cGUvdHJhaW5lZEFsZ29yaXRobWljTWVkaWEAAACsanVtYgAAAChqdW1kY2JvcgARABCAAACqADibcQNjMnBhLmhhc2guZGF0YQAAAAB8Y2JvcqVqZXhjbHVzaW9uc4GiZXN0YXJ0GMVmbGVuZ3RoGTs0ZG5hbWVuanVtYmYgbWFuaWZlc3RjYWxnZnNoYTI1NmRoYXNoWCDAl+pZYGOeoKncsdxxiuyiDWuSZ87atKmKBytRWvS/QmNwYWRJAAAAAAAAAAAAAAACC2p1bWIAAAAkanVtZGMyY2wAEQAQgAAAqgA4m3EDYzJwYS5jbGFpbQAAAAHfY2JvcqhoZGM6dGl0bGVvR2VuZXJhdGVkIEltYWdlaWRjOmZvcm1hdG1pbWFnZS9zdmcreG1samluc3RhbmNlSUR4LHhtcDppaWQ6NThmMmQwYzgtODRkMy00OGRkLWFhMmMtZGY1ZDM0Njk1YjBkb2NsYWltX2dlbmVyYXRvcng2QWRvYmVfSWxsdXN0cmF0b3IvMjguMCBhZG9iZV9jMnBhLzAuNy42IGMycGEtcnMvMC4yNS4ydGNsYWltX2dlbmVyYXRvcl9pbmZvgb9kbmFtZXFBZG9iZSBJbGx1c3RyYXRvcmd2ZXJzaW9uZDI4LjD/aXNpZ25hdHVyZXgZc2VsZiNqdW1iZj1jMnBhLnNpZ25hdHVyZWphc3NlcnRpb25zgqJjdXJseCdzZWxmI2p1bWJmPWMycGEuYXNzZXJ0aW9ucy9jMnBhLmFjdGlvbnNkaGFzaFgg66xm4WqDn3xgnOk59f7WI0GCp10rxJISEEb0ImTQK8GiY3VybHgpc2VsZiNqdW1iZj1jMnBhLmFzc2VydGlvbnMvYzJwYS5oYXNoLmRhdGFkaGFzaFggmzdUovbRXF65yrzop6DmGtE1ziOZb0nSbTuO7YCVyCxjYWxnZnNoYTI1NgAAKEBqdW1iAAAAKGp1bWRjMmNzABEAEIAAAKoAOJtxA2MycGEuc2lnbmF0dXJlAAAAKBBjYm9y0oREoQE4JKNmc2lnVHN0oWl0c3RUb2tlbnOBoWN2YWxZDjYwgg4yMAMCAQAwgg4pBgkqhkiG9w0BBwKggg4aMIIOFgIBAzEPMA0GCWCGSAFlAwQCAQUAMIGCBgsqhkiG9w0BCRABBKBzBHEwbwIBAQYJYIZIAYb9bAcBMDEwDQYJYIZIAWUDBAIBBQAEIP+qwXEiiAGFZw+RTbY85XS95UcgWCuu5JGLgJQBFtscAhAgtHFiBL2fxh6rmxAiIE9fGA8yMDIzMTExNjE1MzA0MVoCCQDu99645aYGEKCCC70wggUHMIIC76ADAgECAhAFHp6R1x6RCrvkPVzt0N3ZMA0GCSqGSIb3DQEBCwUAMGMxCzAJBgNVBAYTAlVTMRcwFQYDVQQKEw5EaWdpQ2VydCwgSW5jLjE7MDkGA1UEAxMyRGlnaUNlcnQgVHJ1c3RlZCBHNCBSU0E0MDk2IFNIQTI1NiBUaW1lU3RhbXBpbmcgQ0EwHhcNMjMwOTA4MDAwMDAwWhcNMzQxMjA3MjM1OTU5WjBYMQswCQYDVQQGEwJVUzEXMBUGA1UEChMORGlnaUNlcnQsIEluYy4xMDAuBgNVBAMTJ0RpZ2lDZXJ0IEFkb2JlIEFBVEwgVGltZXN0YW1wIFJlc3BvbmRlcjBZMBMGByqGSM49AgEGCCqGSM49AwEHA0IABE0srlH5A/+15/MFl1asNh8Q8TubOsEVfu0qlJrF0smjtwL1IeHZ/AB7J59u1Trpho1BDN85lfTY30rNBsfT+myjggGLMIIBhzAOBgNVHQ8BAf8EBAMCB4AwDAYDVR0TAQH/BAIwADAWBgNVHSUBAf8EDDAKBggrBgEFBQcDCDAgBgNVHSAEGTAXMAgGBmeBDAEEAjALBglghkgBhv1sBwEwHwYDVR0jBBgwFoAUuhbZbU2FL3MpdpovdYxqII+eyG8wHQYDVR0OBBYEFLA1qlbDIamLztO4vIsWJVed7zThMFoGA1UdHwRTMFEwT6BNoEuGSWh0dHA6Ly9jcmwzLmRpZ2ljZXJ0LmNvbS9EaWdpQ2VydFRydXN0ZWRHNFJTQTQwOTZTSEEyNTZUaW1lU3RhbXBpbmdDQS5jcmwwgZAGCCsGAQUFBwEBBIGDMIGAMCQGCCsGAQUFBzABhhhodHRwOi8vb2NzcC5kaWdpY2VydC5jb20wWAYIKwYBBQUHMAKGTGh0dHA6Ly9jYWNlcnRzLmRpZ2ljZXJ0LmNvbS9EaWdpQ2VydFRydXN0ZWRHNFJTQTQwOTZTSEEyNTZUaW1lU3RhbXBpbmdDQS5jcnQwDQYJKoZIhvcNAQELBQADggIBAHgrjELHhBCEWJSCyRX7lsL0C9LJgbX1ryVYySNRxHkMR2LqC7PQZRJgDNR+kJop8P5v2Bzp/jMrzw4U4pY6rYv3I8HpFlJa4uBwUTIUgHWpi8Xxd1JEEX94POODi7HySekX60A055BozFb7GGVaxb0LreQTRXnkr6ggPNUPX9Gh+2ScOxlTdQQLgZbkdYvxo3Ap6cy9riZijRxOZqiOyWSxMUhgKxeKzwrFW6Xbe0awNhOUXZzIxc4ixpKzWSItpPJ30ZiBQn49U3ADYTnshbN9ZkTA1pHf/Nov2ZUvvddkZ8UYvwo9vBvLTDvnmABnRMBKaXYAs3ZCvw9CkDPOWTeUJMFRAtmUx52ohaA3nD8bCJ6UfpQ2pFfOdShwpb6GKv0g+BgcdIG2LHPJ0Ufmr+XmpgZgq/HIge0hjcCADpjDgq2z4B0L4xtAA1M8MrUx02hxb7104nFKqMuv5zJTQl3sgwqXUyP+9zHQP9y/Z5Fx/AQWrOXCW56dV7P4cFBJl8zHqinlhkOStZ1m22+9Hlq+eC0hJ2lkF1LuzRdJJb/51LXoPKRnopFDng6XpoD7eG6w4YpAx9+P00JuUoBsYSrdsuFiyWyQQGBAnjI69ggbSLcW+hJytuinaxawVlItJkS2eV5Z4XsxPg7f82uRkdtN0hTHeI93CN3OWeRebnK7MIIGrjCCBJagAwIBAgIQBzY3tyRUfNhHrP0oZipeWzANBgkqhkiG9w0BAQsFADBiMQswCQYDVQQGEwJVUzEVMBMGA1UEChMMRGlnaUNlcnQgSW5jMRkwFwYDVQQLExB3d3cuZGlnaWNlcnQuY29tMSEwHwYDVQQDExhEaWdpQ2VydCBUcnVzdGVkIFJvb3QgRzQwHhcNMjIwMzIzMDAwMDAwWhcNMzcwMzIyMjM1OTU5WjBjMQswCQYDVQQGEwJVUzEXMBUGA1UEChMORGlnaUNlcnQsIEluYy4xOzA5BgNVBAMTMkRpZ2lDZXJ0IFRydXN0ZWQgRzQgUlNBNDA5NiBTSEEyNTYgVGltZVN0YW1waW5nIENBMIICIjANBgkqhkiG9w0BAQEFAAOCAg8AMIICCgKCAgEAxoY1BkmzwT1ySVFVxyUDxPKRN6mXUaHW0oPRnkyibaCwzIP5WvYRoUQVQl+kiPNo+n3znIkLf50fng8zH1ATCyZzlm34V6gCff1DtITaEfFzsbPuK4CEiiIY3+vaPcQXf6sZKz5C3GeO6lE98NZW1OcoLevTsbV15x8GZY2UKdPZ7Gnf2ZCHRgB720RBidx8ald68Dd5n12sy+iEZLRS8nZH92GDGd1ftFQLIWhuNyG7QKxfst5Kfc71ORJn7w6lY2zkpsUdzTYNXNXmG6jBZHRAp8ByxbpOH7G1WE15/tePc5OsLDnipUjW8LAxE6lXKZYnLvWHpo9OdhVVJnCYJn+gGkcgQ+NDY4B7dW4nJZCYOjgRs/b2nuY7W+yB3iIU2YIqx5K/oN7jPqJz+ucfWmyU8lKVEStYdEAoq3NDzt9KoRxrOMUp88qqlnNCaJ+2RrOdOqPVA+C/8KI8ykLcGEh/FDTP0kyr75s9/g64ZCr6dSgkQe1CvwWcZklSUPRR8zZJTYsg0ixXNXkrqPNFYLwjjVj33GHek/45wPmyMKVM1+mYSlg+0wOI/rOP015LdhJRk8mMDDtbiiKowSYI+RQQEgN9XyO7ZONj4KbhPvbCdLI/Hgl27KtdRnXiYKNYCQEoAA6EVO7O6V3IXjASvUaetdN2udIOa5kM0jO0zbECAwEAAaOCAV0wggFZMBIGA1UdEwEB/wQIMAYBAf8CAQAwHQYDVR0OBBYEFLoW2W1NhS9zKXaaL3WMaiCPnshvMB8GA1UdIwQYMBaAFOzX44LScV1kTN8uZz/nupiuHA9PMA4GA1UdDwEB/wQEAwIBhjATBgNVHSUEDDAKBggrBgEFBQcDCDB3BggrBgEFBQcBAQRrMGkwJAYIKwYBBQUHMAGGGGh0dHA6Ly9vY3NwLmRpZ2ljZXJ0LmNvbTBBBggrBgEFBQcwAoY1aHR0cDovL2NhY2VydHMuZGlnaWNlcnQuY29tL0RpZ2lDZXJ0VHJ1c3RlZFJvb3RHNC5jcnQwQwYDVR0fBDwwOjA4oDagNIYyaHR0cDovL2NybDMuZGlnaWNlcnQuY29tL0RpZ2lDZXJ0VHJ1c3RlZFJvb3RHNC5jcmwwIAYDVR0gBBkwFzAIBgZngQwBBAIwCwYJYIZIAYb9bAcBMA0GCSqGSIb3DQEBCwUAA4ICAQB9WY7Ak7ZvmKlEIgF+ZtbYIULhsBguEE0TzzBTzr8Y+8dQXeJLKftwig2qKWn8acHPHQfpPmDI2AvlXFvXbYf6hCAlNDFnzbYSlm/EUExiHQwIgqgWvalWzxVzjQEiJc6VaT9Hd/tydBTX/6tPiix6q4XNQ1/tYLaqT5Fmniye4Iqs5f2MvGQmh2ySvZ180HAKfO+ovHVPulr3qRCyXen/KFSJ8NWKcXZl2szwcqMj+sAngkSumScbqyQeJsG33irr9p6xeZmBo1aGqwpFyd/EjaDnmPv7pp1yr8THwcFqcdnGE4AJxLafzYeHJLtPo0m5d2aR8XKc6UsCUqc3fpNTrDsdCEkPlM05et3/JWOZJyw9P2un8WbDQc1PtkCbISFA0LcTJM3cHXg65J6t5TRxktcma+Q4c6umAU+9Pzt4rUyt+8SVe+0KXzM5h0F4ejjpnOHdI/0dKNPH+ejxmF/7K9h+8kaddSweJywm228Vex4Ziza4k9Tm8heZWcpw8De/mADfIBZPJ/tgZxahZrrdVcA6KYawmKAr7ZVBtzrVFZgxtGIJDwq9gdkT/r+k0fNX2bwE+oLeMt8EifAAzV3C+dAjfwAL5HYCJtnwZXZCpimHCUcr5n8apIUP/JiW9lVUKx+A+sDyDivl1vupL0QVSucTDh3bNzgaoSv27dZ8/DGCAbgwggG0AgEBMHcwYzELMAkGA1UEBhMCVVMxFzAVBgNVBAoTDkRpZ2lDZXJ0LCBJbmMuMTswOQYDVQQDEzJEaWdpQ2VydCBUcnVzdGVkIEc0IFJTQTQwOTYgU0hBMjU2IFRpbWVTdGFtcGluZyBDQQIQBR6ekdcekQq75D1c7dDd2TANBglghkgBZQMEAgEFAKCB0TAaBgkqhkiG9w0BCQMxDQYLKoZIhvcNAQkQAQQwHAYJKoZIhvcNAQkFMQ8XDTIzMTExNjE1MzA0MVowKwYLKoZIhvcNAQkQAgwxHDAaMBgwFgQU2Rq5M/4XremCHqYT9aQ6cU4+fn0wLwYJKoZIhvcNAQkEMSIEIANgKhEgbxfquqdhiPSbbfSRwwpTYu7scpXLhijyam4eMDcGCyqGSIb3DQEJEAIvMSgwJjAkMCIEIILa8ZSVezaEAkWP1ScAaf5ixxRW+p4Lhqv4J+hTICfZMAoGCCqGSM49BAMCBEcwRQIgWj8F/sZAbIqbvD9QPlvJfBa+yb+8gXuM91Ea22WTXmMCIQCf6HZv2RxiFfTVJyV5h9TuJWMk7wmSlgCqogs1vaUr3Gd4NWNoYWluglkGMzCCBi8wggQXoAMCAQICEBtbCzvasORd8vMNnlTR2tIwDQYJKoZIhvcNAQELBQAwdTELMAkGA1UEBhMCVVMxIzAhBgNVBAoTGkFkb2JlIFN5c3RlbXMgSW5jb3Jwb3JhdGVkMR0wGwYDVQQLExRBZG9iZSBUcnVzdCBTZXJ2aWNlczEiMCAGA1UEAxMZQWRvYmUgUHJvZHVjdCBTZXJ2aWNlcyBHMzAeFw0yMzAyMDEwMDAwMDBaFw0yNDAyMDEyMzU5NTlaMIGhMREwDwYDVQQDDAhjYWktcHJvZDEcMBoGA1UECwwTQ29udGVudCBDcmVkZW50aWFsczETMBEGA1UECgwKQWRvYmUgSW5jLjERMA8GA1UEBwwIU2FuIEpvc2UxEzARBgNVBAgMCkNhbGlmb3JuaWExCzAJBgNVBAYTAlVTMSQwIgYJKoZIhvcNAQkBFhVncnAtY2FpLW9wc0BhZG9iZS5jb20wggEiMA0GCSqGSIb3DQEBAQUAA4IBDwAwggEKAoIBAQDv0wCnfYY9lkHDsykrTG7FYlnYHBcyualuD5u9ULjzv+FsTWOLg8Nhrz9RTxI9EeBbu3Wm7f4vqPsQYfxkEp0wIa6DVmEOZhbAeRfbhybWQ/D4Wvvck4mEZR+QZmTpIn7HX61gbtMFHlJUxkYBctIoAt9TBAFbz9d5Ig2WG0bsH39b6/8USXnIIk4FB6dtBRT1xeEwSDtwOd1YBpXXNBJmRWHXNJZZ85of2tBTesg/kMvTrOJJxYDZ97U416wcvbVomlees+NXUY3/ZB4xH+NsZils7m1bL2v2hSnHiLoqZeUKklbHUmT4ZpjrZCdtuIsWm5j2PPXKr7HKUuCbZSXBAgMBAAWjggGMMIIBiDAMBgNVHRMBAf8EAjAAMA4GA1UdDwEB/wQEAwIHgDAeBgNVHSUEFzAVBgkqhkiG9y8BAQwGCCsGAQUFBwMEMIGOBgNVHSAEgYYwgYMwgYAGCSqGSIb3LwECAzBzMHEGCCsGAQUFBwICMGUMY1lvdSBhcmUgbm90IHBlcm1pdHRlZCB0byB1c2UgdGhpcyBMaWNlbnNlIENlcnRpZmljYXRlIGV4Y2VwdCBhcyBwZXJtaXR0ZWQgYnkgdGhlIGxpY2Vuc2UgYWdyZWVtZW50LjBdBgNVHR8EVjBUMFKgUKBOhkxodHRwOi8vcGtpLWNybC5zeW1hdXRoLmNvbS9jYV83YTVjM2EwYzczMTE3NDA2YWRkMTkzMTJiYzFiYzIzZi9MYXRlc3RDUkwuY3JsMDcGCCsGAQUFBwEBBCswKTAnBggrBgEFBQcwAYYbaHR0cDovL3BraS1vY3NwLnN5bWF1dGguY29tMB8GA1UdIwQYMBaAFFcpejJNzP7kNU7AHyRzznNTq99qMA0GCSqGSIb3DQEBCwUAA4ICAQBXjlGa3yAK/Gijn6n/JNU9FZm72MP6vc5czrWe9y0T+EawuRvhpD5Edi1TnXkrpe8sMkgSjTGdbY+yGhq8zlCWQeXN1/aWo3L9Xr1uNxY/oVpLn0uWWfnfJ7yR9gKl/yoMfhjydT4t1fXHi/MhfhrWSVRHqX2U31UFGz/e298P2kv+vqhzpIUo1bj+jibtoPLMMQcCOTtKiJOTh4o3VSZpwQDERCzo91NkF+LnZjwYl6fE5USIkg/oCoomXxSPpowybDrcRJ9ilbtJcER48/LGgwzv/c7OYdron4PnEXm1FkOaVj+QRf7OwiNTizonhIzLR5Vfp0QHOWv/bPzvCjPQd+Xr0Q4032WlSxQwostNTAPtoVAU4OCwVH3Ech38emJ00/6fkDCdr7MN8/4n2LSNrMUvaBEZdmLqDCBnO02dbFrmpg3pTc0FqRQ4GL/88pjRNSMy5tU9SoQnSCGYqIsjfL8AzgPEGiXXRgABYc1uXecf4/eayb3K2MPs7hnWTbUKpHHJIwxpdN3vTGdZNWpz9Oxfuo3eELQlkTvACHgqkaXi/FAanHe5PChn6fr1/4cNF8goD0buPApgS3zzwqjRhxrH8ISwPfJn8JqzurMaLDMnnc18tHzUiMtX73jf6oXh7voCxX/T4D3nFPlxU3om2cpcLQ1Wd4026x18rlSGR1kGpTCCBqEwggSJoAMCAQICEAyotlR7iebSBol1zYubieIwDQYJKoZIhvcNAQELBQAwbDELMAkGA1UEBhMCVVMxIzAhBgNVBAoTGkFkb2JlIFN5c3RlbXMgSW5jb3Jwb3JhdGVkMR0wGwYDVQQLExRBZG9iZSBUcnVzdCBTZXJ2aWNlczEZMBcGA1UEAxMQQWRvYmUgUm9vdCBDQSBHMjAeFw0xNjExMjkwMDAwMDBaFw00MTExMjgyMzU5NTlaMHUxCzAJBgNVBAYTAlVTMSMwIQYDVQQKExpBZG9iZSBTeXN0ZW1zIEluY29ycG9yYXRlZDEdMBsGA1UECxMUQWRvYmUgVHJ1c3QgU2VydmljZXMxIjAgBgNVBAMTGUFkb2JlIFByb2R1Y3QgU2VydmljZXMgRzMwggIiMA0GCSqGSIb3DQEBAQUAA4ICDwAwggIKAoICAQC3Hy69vQmzXEhs/gyDrmwB6lF4JaSAPomnsbKIZNr2iXaB+fkd85X8eJiNmI7P5O4cVT4Nc1p3zrESqBV4ZUyW8gcZ78QdwoHG8QNd2VNcHnMgSR+XT9Iafsnq9Nfww3Jt9KL3l5ANQ5n1+MJqr48EWNLll942bOL/JH4ywDSMoqhZqtJEIUUUGlQVBZ8CAvJc7LE6ddA5C52PE2Ppa7RfQgHXf4gfXVZwpxYRZcziPiOHqEvLb0J3cShUbejFxV6cwX8QyAPa1ePHg1RtM0HX+D34xHo3DkyGnmT+Ddq00TEDGG26AL5PdINKFIQl+zaq6KJFQe1fdGE5wrWzU4mBPmzaz3EbLn+7FWlwAhorYqIMldbfHE3ydc+aTU1JW7+bG19qmvhO9IluGtTtQDeqFBj2fg6faxsfVfVPD7stN6TwoIDlkOCE4RE+Iin8m3z3eqi/VsTmsmRqBxWDRaqOHz02EJoEDxXJG3ei+UbIIp01XZQvdufm90WxOTuqqan2ZqTPX9K5VdjEh/ovr7xFc5q1dZo+Sa5y4sTVM854/tLU3klOgUKzzSXYPYS3GhBcYJHjwr9xNRHnNX99D6F0g7OijScWfvtjxh13aTv/H0ETvymah4yfDpVdh9cK5YSCPqnuOlsujFAyhYwJXOWDvZZU2EkWVLDhoPx9zp7N4QIDAQABo4IBNDCCATAwEgYDVR0TAQH/BAgwBgEB/wIBADA1BgNVHR8ELjAsMCqgKKAmhiRodHRwOi8vY3JsLmFkb2JlLmNvbS9hZG9iZXJvb3RnMi5jcmwwDgYDVR0PAQH/BAQDAgEGMBQGA1UdJQQNMAsGCSqGSIb3LwEBBzBXBgNVHSAEUDBOMEwGCSqGSIb3LwECAzA/MD0GCCsGAQUFBwIBFjFodHRwczovL3d3dy5hZG9iZS5jb20vbWlzYy9wa2kvcHJvZF9zdmNlX2Nwcy5odG1sMCQGA1UdEQQdMBukGTAXMRUwEwYDVQQDEwxTWU1DLTQwOTYtMzMwHQYDVR0OBBYEFFcpejJNzP7kNU7AHyRzznNTq99qMB8GA1UdIwQYMBaAFKYc4W1UJEyoj0hyv26pjNXk7DHUMA0GCSqGSIb3DQEBCwUAA4ICAQBxzuUHjKbcLdzI4DtlXgCSgZXrlSAkr59pOF3JfPG42qVNAGU7JcEYXJ6+WbfcGwY7WYMl+jO7IvJPb7shXFYW9bnJgxX7lLU14KExchmcLNY1ee6IhBJ2Y8PzZMRUKSd5CkURPg0PBLGjz/KR/DofHx+G4rPTCOGORYxeYrd01lci5hVxvKccvIk7MD69ZTewfZPSM+0WnsU3f0Zmd7hgbRpUyWceG0eHFpdUKK/ZFWhHjDVC28odCnN885tHncKXviItK0ZUUo/AIthFKlhEXsnq9VL9fFbgvO83ZvpUQo5y8mY3cuGnEVGXdhjNb53CfC1u4dbpYmWaN99subUzEsUaUb3loLPfVfzDOpg2y9v37kBdy/wuXr20teY7U62xj/fAgs1QSnhUtlMTfCqbefyEycKVmKIrJkJLsvgTSYKVvH4FFIwfd5WjqOC97jX98rcVAzhAI0iSkazsWOMvL6m0L4nLJapx+85GsVX8Y6AHmEP4bmCElwil6KAP+UewJFiw5rmwV2pESHAhYuZJa03B8tl0nd2QJzvJGmbeBqXqpF9ORinFM3HErK8puRokOjFH2+1asLeI2tB31W/ELdNe27Ogduq6Z6qBwCp59YX27qydDhD0WRfN64kCs25K88iGAGNW2CAfTDS+b+WYJBiIL9jXYZ4LF+BiUvfdu2NwYWRZC70AAAAAAAAAAAAAAAAAAAAAAAAAAAAAAAAAAAAAAAAAAAAAAAAAAAAAAAAAAAAAAAAAAAAAAAAAAAAAAAAAAAAAAAAAAAAAAAAAAAAAAAAAAAAAAAAAAAAAAAAAAAAAAAAAAAAAAAAAAAAAAAAAAAAAAAAAAAAAAAAAAAAAAAAAAAAAAAAAAAAAAAAAAAAAAAAAAAAAAAAAAAAAAAAAAAAAAAAAAAAAAAAAAAAAAAAAAAAAAAAAAAAAAAAAAAAAAAAAAAAAAAAAAAAAAAAAAAAAAAAAAAAAAAAAAAAAAAAAAAAAAAAAAAAAAAAAAAAAAAAAAAAAAAAAAAAAAAAAAAAAAAAAAAAAAAAAAAAAAAAAAAAAAAAAAAAAAAAAAAAAAAAAAAAAAAAAAAAAAAAAAAAAAAAAAAAAAAAAAAAAAAAAAAAAAAAAAAAAAAAAAAAAAAAAAAAAAAAAAAAAAAAAAAAAAAAAAAAAAAAAAAAAAAAAAAAAAAAAAAAAAAAAAAAAAAAAAAAAAAAAAAAAAAAAAAAAAAAAAAAAAAAAAAAAAAAAAAAAAAAAAAAAAAAAAAAAAAAAAAAAAAAAAAAAAAAAAAAAAAAAAAAAAAAAAAAAAAAAAAAAAAAAAAAAAAAAAAAAAAAAAAAAAAAAAAAAAAAAAAAAAAAAAAAAAAAAAAAAAAAAAAAAAAAAAAAAAAAAAAAAAAAAAAAAAAAAAAAAAAAAAAAAAAAAAAAAAAAAAAAAAAAAAAAAAAAAAAAAAAAAAAAAAAAAAAAAAAAAAAAAAAAAAAAAAAAAAAAAAAAAAAAAAAAAAAAAAAAAAAAAAAAAAAAAAAAAAAAAAAAAAAAAAAAAAAAAAAAAAAAAAAAAAAAAAAAAAAAAAAAAAAAAAAAAAAAAAAAAAAAAAAAAAAAAAAAAAAAAAAAAAAAAAAAAAAAAAAAAAAAAAAAAAAAAAAAAAAAAAAAAAAAAAAAAAAAAAAAAAAAAAAAAAAAAAAAAAAAAAAAAAAAAAAAAAAAAAAAAAAAAAAAAAAAAAAAAAAAAAAAAAAAAAAAAAAAAAAAAAAAAAAAAAAAAAAAAAAAAAAAAAAAAAAAAAAAAAAAAAAAAAAAAAAAAAAAAAAAAAAAAAAAAAAAAAAAAAAAAAAAAAAAAAAAAAAAAAAAAAAAAAAAAAAAAAAAAAAAAAAAAAAAAAAAAAAAAAAAAAAAAAAAAAAAAAAAAAAAAAAAAAAAAAAAAAAAAAAAAAAAAAAAAAAAAAAAAAAAAAAAAAAAAAAAAAAAAAAAAAAAAAAAAAAAAAAAAAAAAAAAAAAAAAAAAAAAAAAAAAAAAAAAAAAAAAAAAAAAAAAAAAAAAAAAAAAAAAAAAAAAAAAAAAAAAAAAAAAAAAAAAAAAAAAAAAAAAAAAAAAAAAAAAAAAAAAAAAAAAAAAAAAAAAAAAAAAAAAAAAAAAAAAAAAAAAAAAAAAAAAAAAAAAAAAAAAAAAAAAAAAAAAAAAAAAAAAAAAAAAAAAAAAAAAAAAAAAAAAAAAAAAAAAAAAAAAAAAAAAAAAAAAAAAAAAAAAAAAAAAAAAAAAAAAAAAAAAAAAAAAAAAAAAAAAAAAAAAAAAAAAAAAAAAAAAAAAAAAAAAAAAAAAAAAAAAAAAAAAAAAAAAAAAAAAAAAAAAAAAAAAAAAAAAAAAAAAAAAAAAAAAAAAAAAAAAAAAAAAAAAAAAAAAAAAAAAAAAAAAAAAAAAAAAAAAAAAAAAAAAAAAAAAAAAAAAAAAAAAAAAAAAAAAAAAAAAAAAAAAAAAAAAAAAAAAAAAAAAAAAAAAAAAAAAAAAAAAAAAAAAAAAAAAAAAAAAAAAAAAAAAAAAAAAAAAAAAAAAAAAAAAAAAAAAAAAAAAAAAAAAAAAAAAAAAAAAAAAAAAAAAAAAAAAAAAAAAAAAAAAAAAAAAAAAAAAAAAAAAAAAAAAAAAAAAAAAAAAAAAAAAAAAAAAAAAAAAAAAAAAAAAAAAAAAAAAAAAAAAAAAAAAAAAAAAAAAAAAAAAAAAAAAAAAAAAAAAAAAAAAAAAAAAAAAAAAAAAAAAAAAAAAAAAAAAAAAAAAAAAAAAAAAAAAAAAAAAAAAAAAAAAAAAAAAAAAAAAAAAAAAAAAAAAAAAAAAAAAAAAAAAAAAAAAAAAAAAAAAAAAAAAAAAAAAAAAAAAAAAAAAAAAAAAAAAAAAAAAAAAAAAAAAAAAAAAAAAAAAAAAAAAAAAAAAAAAAAAAAAAAAAAAAAAAAAAAAAAAAAAAAAAAAAAAAAAAAAAAAAAAAAAAAAAAAAAAAAAAAAAAAAAAAAAAAAAAAAAAAAAAAAAAAAAAAAAAAAAAAAAAAAAAAAAAAAAAAAAAAAAAAAAAAAAAAAAAAAAAAAAAAAAAAAAAAAAAAAAAAAAAAAAAAAAAAAAAAAAAAAAAAAAAAAAAAAAAAAAAAAAAAAAAAAAAAAAAAAAAAAAAAAAAAAAAAAAAAAAAAAAAAAAAAAAAAAAAAAAAAAAAAAAAAAAAAAAAAAAAAAAAAAAAAAAAAAAAAAAAAAAAAAAAAAAAAAAAAAAAAAAAAAAAAAAAAAAAAAAAAAAAAAAAAAAAAAAAAAAAAAAAAAAAAAAAAAAAAAAAAAAAAAAAAAAAAAAAAAAAAAAAAAAAAAAAAAAAAAAAAAAAAAAAAAAAAAAAAAAAAAAAAAAAAAAAAAAAAAAAAAAAAAAAAAAAAAAAAAAAAAAAAAAAAAAAAAAAAAAAAAAAAAAAAAAAAAAAAAAAAAAAAAAAAAAAAAAAAAAAAAAAAAAAAAAAAAAAAAAAAAAAAAAAAAAAAAAAAAAAAAAAAAAAAAAAAAAAAAAAAAAAAAAAAAAAAAAAAAAAAAAAAAAAAAAAAAAAAAAAAAAAAAAAAAAAAAAAAAAAAAAAAAAAAAAAAAAAAAAAAAAAAAAAAAAAAAAAAAAAAAAAAAAAAAAAAAAAAAAAAAAAAAAAAAAAAAAAAAAAAAAAAAAAAAAAAAAAAAAAAAAAAAAAAAAAAAAAAAAAAAAAAAAAAAAAAAAAAAAAAAAAAAAAAAAAAAAAAAAAAAAAAAAAAAAAAAAAAAAAAAAAAAAAAAAAAAAAAAAAAAAAAAAAAAAAAAAAAAAAAAAAAAAAAAAAAAAAAAAAAAAAAAAAAAAAAAAAAAAAAAAAAAAAAAAAAAAAAAAAAAAAAAAAAAAAAAAAAAAAAAAAAAAAAAAAAAAAAAAAAAAAAAAAAAAAAAAAAAAAAAAAAAAAAAAAAAAAAAAAAAAAAAAAAAAAAAAAAAAAAAAAAAAAAAAAAAAAAAAAAAAAAAAAAAAAAAAAAAAAAAAAAAAAAAAAAAAAAAAAAAAAAAAAAAAAAAAAAAAAAAAAAAAAAAAAAAAAAAAAAAAAAAAAAAAAAAAAAAAAAAAAAAAAAAAAAAAAAAAAAAAAAAAAAAAAAAAAAAAAAAAAAAAAAAAAAAAAAAAAAAAAAAAAAAAAAAAAAAAAAAAAAAAAAAAAAAAAAAAAAAAAAAAAAAAAAAAAAAAAAAAAAAAAAAAAAAAAAAAAAAAAAAAAAAAAAAAAAAAAAAAAAAAAAAAAAAAAAAAAAAAAAAAAAAAAAAAAAAAAAAAAAAAAAAAAAAAAAAAAAAAAAAAAAAAAAAAAAAAAAAAAAAAAAAAAAAAAAAAAAAAAAAAAAAAAAAAAAAAAAAAAAAAAAAAAAAAAAAAAAAAAAAAAAAAAAAAAAAAAAAAAAAAAAAAAAAAAAAAAAAAAAAAAAAAAAAAAAAAAAAAAAAAAAAAAAAAAAAAAAAAAAAAAAAAAAAAAAAAAAAAAAAAAAAAAAAAAAAAAAAAAAAAAAAAAAAAAAAAAAAAAAAAAAAAAAAAAAAAAAAAAAAAAAAAAAAAAAAAAAAAAAAAAAAAAAAAAAAAAAAAAAAAAAAAAAAAAAAAAAAAAAAAAAAAAAAAAAAAAAAAAAAAAAAAAAAAAAAAAAAAAAAAAAAAAAAAAAAAAAAAAAAAAAAAAAAAAAAAAAAAAAAAAAAAAPZZAQALTl9o22Xy0JSxkPYpndCK0QKgl3Esyr4knAySfJiF/VWCh3BoDjcmFkwajN9h1EjAPTadcKpSc63LR57wetplM5XGbO08c5FOVViE5P1c3qK1ssos01kbU3ORk+6Td8k4b7+R8TilSnv6YMu7RMUbDd0FXMdFZmJXIij/MC1QtP+pJxq7wElvINxYmuzRiDU1x/rnA5Md+FLcPbXrL7rC40tIIwJDfrJ6mdlSjbTR8nxg6ySaRl4PB2GFqTLbEDd/1MkbSaSPhL9Z0Tu4C0HKOKkKnL0BIQ07vitvxMz3wtPJMHZ7r7kRRs6Iokw/t7mqVPBf/PK7xrMZOgwR1Pl7</c2pa:manifest></metadata>
  <defs>
    <style>
      .cls-1 {
        stroke-width: 0px;
      }
    </style>
  </defs>
  <g id="Chair-Black">
    <path class="cls-1" d="m343.5,388.27l-31.03-95.97h19.08c2.17,0,4.06-1.39,4.71-3.46.65-2.07-.12-4.29-1.9-5.53l-31.97-22.17-16.88-52.22h28.35v-26.47h-59.69v-82.33h-8v15.31H53.8v-15.3h-8v82.33h-10.3v26.48h10.3v20.73l-9.45,135.68c-.29,5.01,1.45,9.78,4.9,13.43s8.11,5.66,13.17,5.66l68.54-.64,4,12.36c3.05,9.42,11.75,15.75,21.65,15.75h177.71c5.84,0,11.17-2.71,14.61-7.44,3.44-4.72,4.38-10.62,2.58-16.18Zm-89.33-197.83h51.69v10.47h-51.69v-10.47Zm0,18.47h22.93l14.45,44.71-37.39-25.93v-18.78Zm-50.05-22.83c4.87-2.02,18.43-2.8,24.06-3.36,5.68-.57,5.76-8.94,5.99-14.94.06-1.56-.16-3.21.87-4.55.49-.63,1.3-1,2.08-.81,1.43.35,1.62,1.99,1.63,3.32l.11,16.81c0,1.03-.31,2.07-1,2.84-1.43,1.59-3.54,2.21-5.7,2.39-6.03.49-16.63.99-25.82.42-1.43-.09-3.85-1.42-2.22-2.1Zm-100.95,13.59h142.99v26.11H80.29l-5.45-16.87h28.34v-9.24Zm71.74,84.16c-7.58,1.01-26.58.05-35.65-1.36-7.75-1.2-13.22-6.69-17.38-10.52-5.21-4.78-13.88-7.96-12.14-10.11,3.34-4.13,16.42,5.77,22.23,10.73,5.81,4.97,11.37,4.43,19.2,5.69,7.83,1.26,31.33,4.55,23.75,5.56ZM63.87,134.43c1.71-7.04,6.14-5.96,15.68-5.84,7.75.1,12.97.36,14.81.46.44.02.76.42.7.85-.23,1.67-1.71,5.27-10.21,4.52-10.98-.97-13.66-5.82-14.88-.73-1.08,4.5-1.2,36.18-3.57,40.2-.34.58-3.9-33.81-2.53-39.47Zm-20.37,66.49v-10.48h51.68v10.48h-51.68Zm28.39,24.87h-18.08v-16.87h12.63l5.45,16.87Zm-17.49,150.63c-2.8,0-5.4-1.12-7.32-3.15-1.92-2.03-2.89-4.69-2.73-7.43l8.75-125.65,30.23,20.97,37.07,114.66-66,.61Zm39.77-107.75l34.08,23.64h113.63l-5.03,72.28c-.4,5.69-5.17,10.18-10.87,10.24l-97.19.9-34.61-107.06Zm240.3,131.08c-1.92,2.63-4.88,4.14-8.14,4.14h-177.71c-6.42,0-12.06-4.1-14.04-10.21l-3.23-9.98,94.68-.88c9.85-.09,18.09-7.86,18.78-17.68l5.07-72.84h54.18l31.82,98.43c1,3.1.48,6.38-1.44,9.02Z"/>
    <path class="cls-1" d="m732.51,208.92v-26.48h-10.3v-82.33h-8v15.3h-192.37v-15.31h-8v82.33h-59.69v26.47h28.35l-16.88,52.22-31.97,22.17c-1.78,1.24-2.55,3.46-1.9,5.53.65,2.07,2.54,3.46,4.71,3.46h19.08l-31.03,95.97c-1.8,5.56-.86,11.46,2.58,16.18,3.44,4.73,8.76,7.44,14.61,7.44h177.71c9.9,0,18.6-6.33,21.65-15.75l4-12.36,68.58.64c5.02,0,9.68-2.01,13.13-5.66,3.45-3.65,5.19-8.42,4.9-13.48l-9.44-135.63v-20.73h10.3Zm-57.13-79.87c1.84-.1,7.05-.36,14.81-.46,9.54-.12,13.97-1.2,15.68,5.84,1.37,5.66-2.19,40.05-2.53,39.47-2.36-4.01-2.49-35.7-3.57-40.2-1.22-5.1-3.9-.24-14.88.73-8.5.75-9.97-2.85-10.21-4.52-.06-.44.26-.83.7-.85Zm-146.41,36.68c0-1.33.2-2.97,1.63-3.32.78-.19,1.59.18,2.08.81,1.04,1.34.81,2.99.87,4.55.23,6,.31,14.37,5.99,14.94,5.63.56,19.19,1.34,24.06,3.36,1.63.68-.79,2.01-2.22,2.1-9.19.58-19.79.07-25.82-.42-2.16-.18-4.27-.8-5.7-2.39-.69-.77-1.01-1.8-1-2.84l.11-16.81Zm-7.14,43.18v-9.24h142.99v9.24h28.34l-5.45,16.87h-165.88v-16.87Zm-59.69-8v-10.47h51.69v10.47h-51.69Zm28.75,8h22.93v18.78l-37.39,25.93,14.45-44.71Zm-24.33,71.15c1.51-3.34,19.7-18.96,30.19-25.89,6.15-4.07,3.91-.07,1.77,1.77-9.09,7.83-26.07,21.53-21.41,24.09,7.83,4.29,51.77,2.03,34.04,4.84-8.2,1.3-12.19,1.12-21.85.88-14.46-.36-24.71-1.33-22.74-5.68Zm166.87,113.62c-1.98,6.11-7.62,10.21-14.04,10.21h-177.71c-3.26,0-6.22-1.51-8.14-4.14-1.92-2.63-2.44-5.92-1.44-9.02l31.82-98.43h54.18l5.07,72.84c.68,9.82,8.93,17.59,18.78,17.68l94.69.88-3.23,9.98Zm5.8-17.95l-97.19-.9c-5.7-.05-10.47-4.55-10.87-10.24l-5.03-72.28h113.63l34.08-23.64-34.61,107.06Zm84.43-9.94c.16,2.79-.81,5.45-2.73,7.48-1.92,2.03-4.52,3.15-7.28,3.15l-66.04-.61,37.07-114.66,30.23-20.97,8.75,125.6Zm-27.54-140l5.45-16.87h12.63v16.87h-18.08Zm-23.3-24.87v-10.48h51.68v10.48h-51.68Z"/>
  </g>
</svg>