<?xml version="1.0" encoding="utf-8"?>
<!-- Generator: Adobe Illustrator 28.0.0, SVG Export Plug-In . SVG Version: 6.00 Build 0)  -->
<svg version="1.1" id="Layer_1" xmlns="http://www.w3.org/2000/svg" xmlns:xlink="http://www.w3.org/1999/xlink" x="0px" y="0px"
	 viewBox="0 0 768 512" style="enable-background:new 0 0 768 512;" xml:space="preserve">
<g id="Chairs">
	<path d="M732.5,210.9v-26.5h-10.3v-82.3h-8v15.3H521.8v-15.3h-8v82.3h-59.7v26.5h28.4l-16.9,52.2l-32,22.2
		c-1.8,1.2-2.5,3.5-1.9,5.5s2.5,3.5,4.7,3.5h19.1l-31,96c-1.8,5.6-0.9,11.5,2.6,16.2c3.4,4.7,8.8,7.4,14.6,7.4h177.7
		c9.9,0,18.6-6.3,21.7-15.8l4-12.4l68.6,0.6c5,0,9.7-2,13.1-5.7s5.2-8.4,4.9-13.5l-9.4-135.6v-20.7L732.5,210.9L732.5,210.9z
		 M724.5,202.9h-51.7v-10.5h51.7V202.9z M521.8,210.9v-9.2h143v9.2h28.3l-5.5,16.9H521.8V210.9z M521.8,125.4h192.4v59h-49.4v9.2
		h-143V125.4L521.8,125.4z M462.1,192.4h51.7v10.5h-51.7V192.4z M490.9,210.9h22.9v18.8l-37.4,25.9L490.9,210.9L490.9,210.9z
		 M519.1,235.8h166l-7.2,22.3l-40.6,28.2h-191L519.1,235.8L519.1,235.8z M693.5,235.8h16.6l-21.4,14.8L693.5,235.8z M673.8,270.7
		l-34.6,107.1l-97.2-0.9c-5.7,0-10.5-4.5-10.9-10.2l-5-72.3h113.6L673.8,270.7L673.8,270.7z M633.4,395.7c-2,6.1-7.6,10.2-14,10.2
		H441.7c-3.3,0-6.2-1.5-8.1-4.1s-2.4-5.9-1.4-9l31.8-98.4h54.2l5.1,72.8c0.7,9.8,8.9,17.6,18.8,17.7l94.7,0.9L633.4,395.7
		L633.4,395.7z M720.9,375.2c-1.9,2-4.5,3.1-7.3,3.1l-66-0.6l37.1-114.6l30.2-21l8.8,125.6C723.8,370.6,722.8,373.2,720.9,375.2
		L720.9,375.2z M714.2,227.8h-18.1l5.5-16.9h12.6V227.8z"/>
	<path d="M343.5,390.3l-31-96h19.1c2.2,0,4.1-1.4,4.7-3.5c0.6-2.1-0.1-4.3-1.9-5.5l-32-22.2l-16.9-52.2h28.4v-26.5h-59.7v-82.3h-8
		v15.3H53.8v-15.3h-8v82.3H35.5v26.5h10.3v20.7l-9.5,135.7c-0.3,5,1.5,9.8,4.9,13.4s8.1,5.7,13.2,5.7l68.5-0.6l4,12.4
		c3,9.4,11.7,15.8,21.7,15.8h177.7c5.8,0,11.2-2.7,14.6-7.4C344.4,401.7,345.3,395.9,343.5,390.3L343.5,390.3z M130.7,286.3
		l-40.6-28.2l-7.2-22.3h166l72.8,50.5H130.7z M241.9,294.3l-5,72.3c-0.4,5.7-5.2,10.2-10.9,10.2l-97.2,0.9L94.2,270.7l34.1,23.6
		H241.9L241.9,294.3z M79.3,250.6l-21.4-14.8h16.6L79.3,250.6z M103.2,201.7h143v26.1H80.3l-5.4-16.9h28.3V201.7z M291.6,255.6
		l-37.4-25.9v-18.8h22.9L291.6,255.6L291.6,255.6z M305.9,192.4v10.5h-51.7v-10.5H305.9z M53.8,125.4h192.4v68.3h-143v-9.2H53.8
		V125.4L53.8,125.4z M43.5,192.4h51.7v10.5H43.5V192.4z M66.4,210.9l5.4,16.9H53.8v-16.9C53.8,210.9,66.4,210.9,66.4,210.9z
		 M54.4,378.4c-2.8,0-5.4-1.1-7.3-3.1s-2.9-4.7-2.7-7.4l8.8-125.6l30.2,21l37.1,114.7L54.4,378.4L54.4,378.4z M334.5,401.7
		c-1.9,2.6-4.9,4.1-8.1,4.1H148.6c-6.4,0-12.1-4.1-14-10.2l-3.2-10l94.7-0.9c9.9-0.1,18.1-7.9,18.8-17.7l5.1-72.8h54.2l31.8,98.4
		C336.9,395.8,336.4,399.1,334.5,401.7L334.5,401.7z"/>
</g>
</svg>
