<?xml version="1.0" encoding="UTF-8"?>
<svg id="Layer_1" data-name="Layer 1" xmlns="http://www.w3.org/2000/svg" viewBox="0 0 512 512"><metadata><c2pa:manifest xmlns:c2pa="http://c2pa.org/manifest">AAAsZ2p1bWIAAAAeanVtZGMycGEAEQAQgAAAqgA4m3EDYzJwYQAAACxBanVtYgAAAEdqdW1kYzJtYQARABCAAACqADibcQN1cm46dXVpZDo4YzBmNDY3OC1mM2EzLTRhYzktOGMwZC0zNTJmZDM1MmI0ZjQAAAABp2p1bWIAAAApanVtZGMyYXMAEQAQgAAAqgA4m3EDYzJwYS5hc3NlcnRpb25zAAAAAMpqdW1iAAAAJmp1bWRjYm9yABEAEIAAAKoAOJtxA2MycGEuYWN0aW9ucwAAAACcY2JvcqFnYWN0aW9uc4GjZmFjdGlvbmtjMnBhLmVkaXRlZG1zb2Z0d2FyZUFnZW50bUFkb2JlIEZpcmVmbHlxZGlnaXRhbFNvdXJjZVR5cGV4Rmh0dHA6Ly9jdi5pcHRjLm9yZy9uZXdzY29kZXMvZGlnaXRhbHNvdXJjZXR5cGUvdHJhaW5lZEFsZ29yaXRobWljTWVkaWEAAACsanVtYgAAAChqdW1kY2JvcgARABCAAACqADibcQNjMnBhLmhhc2guZGF0YQAAAAB8Y2JvcqVqZXhjbHVzaW9uc4GiZXN0YXJ0GMVmbGVuZ3RoGTs0ZG5hbWVuanVtYmYgbWFuaWZlc3RjYWxnZnNoYTI1NmRoYXNoWCCf2h4qnJ963Qx4CfvVGF+SHwAsGP15UijYSEqtTbraV2NwYWRJAAAAAAAAAAAAAAACC2p1bWIAAAAkanVtZGMyY2wAEQAQgAAAqgA4m3EDYzJwYS5jbGFpbQAAAAHfY2JvcqhoZGM6dGl0bGVvR2VuZXJhdGVkIEltYWdlaWRjOmZvcm1hdG1pbWFnZS9zdmcreG1samluc3RhbmNlSUR4LHhtcDppaWQ6ZWY0ODE5YjItNmM1NC00MzkyLWEzZTctMDU3NzNjNGJhNjRlb2NsYWltX2dlbmVyYXRvcng2QWRvYmVfSWxsdXN0cmF0b3IvMjguMCBhZG9iZV9jMnBhLzAuNy42IGMycGEtcnMvMC4yNS4ydGNsYWltX2dlbmVyYXRvcl9pbmZvgb9kbmFtZXFBZG9iZSBJbGx1c3RyYXRvcmd2ZXJzaW9uZDI4LjD/aXNpZ25hdHVyZXgZc2VsZiNqdW1iZj1jMnBhLnNpZ25hdHVyZWphc3NlcnRpb25zgqJjdXJseCdzZWxmI2p1bWJmPWMycGEuYXNzZXJ0aW9ucy9jMnBhLmFjdGlvbnNkaGFzaFgg66xm4WqDn3xgnOk59f7WI0GCp10rxJISEEb0ImTQK8GiY3VybHgpc2VsZiNqdW1iZj1jMnBhLmFzc2VydGlvbnMvYzJwYS5oYXNoLmRhdGFkaGFzaFggzjkLcBoFHirZOgiA9ujwbW/5ecD5EKZx/THky+qNIs9jYWxnZnNoYTI1NgAAKEBqdW1iAAAAKGp1bWRjMmNzABEAEIAAAKoAOJtxA2MycGEuc2lnbmF0dXJlAAAAKBBjYm9y0oREoQE4JKNmc2lnVHN0oWl0c3RUb2tlbnOBoWN2YWxZDjgwgg40MAMCAQAwgg4rBgkqhkiG9w0BBwKggg4cMIIOGAIBAzEPMA0GCWCGSAFlAwQCAQUAMIGDBgsqhkiG9w0BCRABBKB0BHIwcAIBAQYJYIZIAYb9bAcBMDEwDQYJYIZIAWUDBAIBBQAEIAOBqBq08P6lVU9HIS5+YVEoPSNu6imMf+ZO/YZ957BkAhEA43DLVG8m7koYd3g0k9rDJxgPMjAyMzExMTYxNTMwNDFaAgkAxC3mKBjsyzmgggu9MIIFBzCCAu+gAwIBAgIQBR6ekdcekQq75D1c7dDd2TANBgkqhkiG9w0BAQsFADBjMQswCQYDVQQGEwJVUzEXMBUGA1UEChMORGlnaUNlcnQsIEluYy4xOzA5BgNVBAMTMkRpZ2lDZXJ0IFRydXN0ZWQgRzQgUlNBNDA5NiBTSEEyNTYgVGltZVN0YW1waW5nIENBMB4XDTIzMDkwODAwMDAwMFoXDTM0MTIwNzIzNTk1OVowWDELMAkGA1UEBhMCVVMxFzAVBgNVBAoTDkRpZ2lDZXJ0LCBJbmMuMTAwLgYDVQQDEydEaWdpQ2VydCBBZG9iZSBBQVRMIFRpbWVzdGFtcCBSZXNwb25kZXIwWTATBgcqhkjOPQIBBggqhkjOPQMBBwNCAARNLK5R+QP/tefzBZdWrDYfEPE7mzrBFX7tKpSaxdLJo7cC9SHh2fwAeyefbtU66YaNQQzfOZX02N9KzQbH0/pso4IBizCCAYcwDgYDVR0PAQH/BAQDAgeAMAwGA1UdEwEB/wQCMAAwFgYDVR0lAQH/BAwwCgYIKwYBBQUHAwgwIAYDVR0gBBkwFzAIBgZngQwBBAIwCwYJYIZIAYb9bAcBMB8GA1UdIwQYMBaAFLoW2W1NhS9zKXaaL3WMaiCPnshvMB0GA1UdDgQWBBSwNapWwyGpi87TuLyLFiVXne804TBaBgNVHR8EUzBRME+gTaBLhklodHRwOi8vY3JsMy5kaWdpY2VydC5jb20vRGlnaUNlcnRUcnVzdGVkRzRSU0E0MDk2U0hBMjU2VGltZVN0YW1waW5nQ0EuY3JsMIGQBggrBgEFBQcBAQSBgzCBgDAkBggrBgEFBQcwAYYYaHR0cDovL29jc3AuZGlnaWNlcnQuY29tMFgGCCsGAQUFBzAChkxodHRwOi8vY2FjZXJ0cy5kaWdpY2VydC5jb20vRGlnaUNlcnRUcnVzdGVkRzRSU0E0MDk2U0hBMjU2VGltZVN0YW1waW5nQ0EuY3J0MA0GCSqGSIb3DQEBCwUAA4ICAQB4K4xCx4QQhFiUgskV+5bC9AvSyYG19a8lWMkjUcR5DEdi6guz0GUSYAzUfpCaKfD+b9gc6f4zK88OFOKWOq2L9yPB6RZSWuLgcFEyFIB1qYvF8XdSRBF/eDzjg4ux8knpF+tANOeQaMxW+xhlWsW9C63kE0V55K+oIDzVD1/RoftknDsZU3UEC4GW5HWL8aNwKenMva4mYo0cTmaojslksTFIYCsXis8KxVul23tGsDYTlF2cyMXOIsaSs1kiLaTyd9GYgUJ+PVNwA2E57IWzfWZEwNaR3/zaL9mVL73XZGfFGL8KPbwby0w755gAZ0TASml2ALN2Qr8PQpAzzlk3lCTBUQLZlMedqIWgN5w/GwielH6UNqRXznUocKW+hir9IPgYHHSBtixzydFH5q/l5qYGYKvxyIHtIY3AgA6Yw4Kts+AdC+MbQANTPDK1MdNocW+9dOJxSqjLr+cyU0Jd7IMKl1Mj/vcx0D/cv2eRcfwEFqzlwluenVez+HBQSZfMx6op5YZDkrWdZttvvR5avngtISdpZBdS7s0XSSW/+dS16DykZ6KRQ54Ol6aA+3husOGKQMffj9NCblKAbGEq3bLhYslskEBgQJ4yOvYIG0i3FvoScrbop2sWsFZSLSZEtnleWeF7MT4O3/NrkZHbTdIUx3iPdwjdzlnkXm5yuzCCBq4wggSWoAMCAQICEAc2N7ckVHzYR6z9KGYqXlswDQYJKoZIhvcNAQELBQAwYjELMAkGA1UEBhMCVVMxFTATBgNVBAoTDERpZ2lDZXJ0IEluYzEZMBcGA1UECxMQd3d3LmRpZ2ljZXJ0LmNvbTEhMB8GA1UEAxMYRGlnaUNlcnQgVHJ1c3RlZCBSb290IEc0MB4XDTIyMDMyMzAwMDAwMFoXDTM3MDMyMjIzNTk1OVowYzELMAkGA1UEBhMCVVMxFzAVBgNVBAoTDkRpZ2lDZXJ0LCBJbmMuMTswOQYDVQQDEzJEaWdpQ2VydCBUcnVzdGVkIEc0IFJTQTQwOTYgU0hBMjU2IFRpbWVTdGFtcGluZyBDQTCCAiIwDQYJKoZIhvcNAQEBBQADggIPADCCAgoCggIBAMaGNQZJs8E9cklRVcclA8TykTepl1Gh1tKD0Z5Mom2gsMyD+Vr2EaFEFUJfpIjzaPp985yJC3+dH54PMx9QEwsmc5Zt+FeoAn39Q7SE2hHxc7Gz7iuAhIoiGN/r2j3EF3+rGSs+QtxnjupRPfDWVtTnKC3r07G1decfBmWNlCnT2exp39mQh0YAe9tEQYncfGpXevA3eZ9drMvohGS0UvJ2R/dhgxndX7RUCyFobjchu0CsX7LeSn3O9TkSZ+8OpWNs5KbFHc02DVzV5huowWR0QKfAcsW6Th+xtVhNef7Xj3OTrCw54qVI1vCwMROpVymWJy71h6aPTnYVVSZwmCZ/oBpHIEPjQ2OAe3VuJyWQmDo4EbP29p7mO1vsgd4iFNmCKseSv6De4z6ic/rnH1pslPJSlRErWHRAKKtzQ87fSqEcazjFKfPKqpZzQmiftkaznTqj1QPgv/CiPMpC3BhIfxQ0z9JMq++bPf4OuGQq+nUoJEHtQr8FnGZJUlD0UfM2SU2LINIsVzV5K6jzRWC8I41Y99xh3pP+OcD5sjClTNfpmEpYPtMDiP6zj9NeS3YSUZPJjAw7W4oiqMEmCPkUEBIDfV8ju2TjY+Cm4T72wnSyPx4JduyrXUZ14mCjWAkBKAAOhFTuzuldyF4wEr1GnrXTdrnSDmuZDNIztM2xAgMBAAGjggFdMIIBWTASBgNVHRMBAf8ECDAGAQH/AgEAMB0GA1UdDgQWBBS6FtltTYUvcyl2mi91jGogj57IbzAfBgNVHSMEGDAWgBTs1+OC0nFdZEzfLmc/57qYrhwPTzAOBgNVHQ8BAf8EBAMCAYYwEwYDVR0lBAwwCgYIKwYBBQUHAwgwdwYIKwYBBQUHAQEEazBpMCQGCCsGAQUFBzABhhhodHRwOi8vb2NzcC5kaWdpY2VydC5jb20wQQYIKwYBBQUHMAKGNWh0dHA6Ly9jYWNlcnRzLmRpZ2ljZXJ0LmNvbS9EaWdpQ2VydFRydXN0ZWRSb290RzQuY3J0MEMGA1UdHwQ8MDowOKA2oDSGMmh0dHA6Ly9jcmwzLmRpZ2ljZXJ0LmNvbS9EaWdpQ2VydFRydXN0ZWRSb290RzQuY3JsMCAGA1UdIAQZMBcwCAYGZ4EMAQQCMAsGCWCGSAGG/WwHATANBgkqhkiG9w0BAQsFAAOCAgEAfVmOwJO2b5ipRCIBfmbW2CFC4bAYLhBNE88wU86/GPvHUF3iSyn7cIoNqilp/GnBzx0H6T5gyNgL5Vxb122H+oQgJTQxZ822EpZvxFBMYh0MCIKoFr2pVs8Vc40BIiXOlWk/R3f7cnQU1/+rT4osequFzUNf7WC2qk+RZp4snuCKrOX9jLxkJodskr2dfNBwCnzvqLx1T7pa96kQsl3p/yhUifDVinF2ZdrM8HKjI/rAJ4JErpknG6skHibBt94q6/aesXmZgaNWhqsKRcnfxI2g55j7+6adcq/Ex8HBanHZxhOACcS2n82HhyS7T6NJuXdmkfFynOlLAlKnN36TU6w7HQhJD5TNOXrd/yVjmScsPT9rp/Fmw0HNT7ZAmyEhQNC3EyTN3B14OuSereU0cZLXJmvkOHOrpgFPvT87eK1MrfvElXvtCl8zOYdBeHo46Zzh3SP9HSjTx/no8Zhf+yvYfvJGnXUsHicsJttvFXseGYs2uJPU5vIXmVnKcPA3v5gA3yAWTyf7YGcWoWa63VXAOimGsJigK+2VQbc61RWYMbRiCQ8KvYHZE/6/pNHzV9m8BPqC3jLfBInwAM1dwvnQI38AC+R2AibZ8GV2QqYphwlHK+Z/GqSFD/yYlvZVVCsfgPrA8g4r5db7qS9EFUrnEw4d2zc4GqEr9u3WfPwxggG5MIIBtQIBATB3MGMxCzAJBgNVBAYTAlVTMRcwFQYDVQQKEw5EaWdpQ2VydCwgSW5jLjE7MDkGA1UEAxMyRGlnaUNlcnQgVHJ1c3RlZCBHNCBSU0E0MDk2IFNIQTI1NiBUaW1lU3RhbXBpbmcgQ0ECEAUenpHXHpEKu+Q9XO3Q3dkwDQYJYIZIAWUDBAIBBQCggdEwGgYJKoZIhvcNAQkDMQ0GCyqGSIb3DQEJEAEEMBwGCSqGSIb3DQEJBTEPFw0yMzExMTYxNTMwNDFaMCsGCyqGSIb3DQEJEAIMMRwwGjAYMBYEFNkauTP+F63pgh6mE/WkOnFOPn59MC8GCSqGSIb3DQEJBDEiBCA0Wbq5H6iDhEJFCWDfoOc6zhsasUX77P0DGNgFftgBMjA3BgsqhkiG9w0BCRACLzEoMCYwJDAiBCCC2vGUlXs2hAJFj9UnAGn+YscUVvqeC4ar+CfoUyAn2TAKBggqhkjOPQQDAgRIMEYCIQDW0mZmCapiQLZmjQ0GQSLmZ6DDnA5RDVpB6zCyc4hTXwIhAP/FTr0rQPUImITvNrkK0CV5MmxsUtbKDsWVuXqxqkCoZ3g1Y2hhaW6CWQYzMIIGLzCCBBegAwIBAgIQG1sLO9qw5F3y8w2eVNHa0jANBgkqhkiG9w0BAQsFADB1MQswCQYDVQQGEwJVUzEjMCEGA1UEChMaQWRvYmUgU3lzdGVtcyBJbmNvcnBvcmF0ZWQxHTAbBgNVBAsTFEFkb2JlIFRydXN0IFNlcnZpY2VzMSIwIAYDVQQDExlBZG9iZSBQcm9kdWN0IFNlcnZpY2VzIEczMB4XDTIzMDIwMTAwMDAwMFoXDTI0MDIwMTIzNTk1OVowgaExETAPBgNVBAMMCGNhaS1wcm9kMRwwGgYDVQQLDBNDb250ZW50IENyZWRlbnRpYWxzMRMwEQYDVQQKDApBZG9iZSBJbmMuMREwDwYDVQQHDAhTYW4gSm9zZTETMBEGA1UECAwKQ2FsaWZvcm5pYTELMAkGA1UEBhMCVVMxJDAiBgkqhkiG9w0BCQEWFWdycC1jYWktb3BzQGFkb2JlLmNvbTCCASIwDQYJKoZIhvcNAQEBBQADggEPADCCAQoCggEBAO/TAKd9hj2WQcOzKStMbsViWdgcFzK5qW4Pm71QuPO/4WxNY4uDw2GvP1FPEj0R4Fu7dabt/i+o+xBh/GQSnTAhroNWYQ5mFsB5F9uHJtZD8Pha+9yTiYRlH5BmZOkifsdfrWBu0wUeUlTGRgFy0igC31MEAVvP13kiDZYbRuwff1vr/xRJecgiTgUHp20FFPXF4TBIO3A53VgGldc0EmZFYdc0llnzmh/a0FN6yD+Qy9Os4knFgNn3tTjXrBy9tWiaV56z41dRjf9kHjEf42xmKWzubVsva/aFKceIuipl5QqSVsdSZPhmmOtkJ224ixabmPY89cqvscpS4JtlJcECAwEABaOCAYwwggGIMAwGA1UdEwEB/wQCMAAwDgYDVR0PAQH/BAQDAgeAMB4GA1UdJQQXMBUGCSqGSIb3LwEBDAYIKwYBBQUHAwQwgY4GA1UdIASBhjCBgzCBgAYJKoZIhvcvAQIDMHMwcQYIKwYBBQUHAgIwZQxjWW91IGFyZSBub3QgcGVybWl0dGVkIHRvIHVzZSB0aGlzIExpY2Vuc2UgQ2VydGlmaWNhdGUgZXhjZXB0IGFzIHBlcm1pdHRlZCBieSB0aGUgbGljZW5zZSBhZ3JlZW1lbnQuMF0GA1UdHwRWMFQwUqBQoE6GTGh0dHA6Ly9wa2ktY3JsLnN5bWF1dGguY29tL2NhXzdhNWMzYTBjNzMxMTc0MDZhZGQxOTMxMmJjMWJjMjNmL0xhdGVzdENSTC5jcmwwNwYIKwYBBQUHAQEEKzApMCcGCCsGAQUFBzABhhtodHRwOi8vcGtpLW9jc3Auc3ltYXV0aC5jb20wHwYDVR0jBBgwFoAUVyl6Mk3M/uQ1TsAfJHPOc1Or32owDQYJKoZIhvcNAQELBQADggIBAFeOUZrfIAr8aKOfqf8k1T0VmbvYw/q9zlzOtZ73LRP4RrC5G+GkPkR2LVOdeSul7ywySBKNMZ1tj7IaGrzOUJZB5c3X9pajcv1evW43Fj+hWkufS5ZZ+d8nvJH2AqX/Kgx+GPJ1Pi3V9ceL8yF+GtZJVEepfZTfVQUbP97b3w/aS/6+qHOkhSjVuP6OJu2g8swxBwI5O0qIk5OHijdVJmnBAMRELOj3U2QX4udmPBiXp8TlRIiSD+gKiiZfFI+mjDJsOtxEn2KVu0lwRHjz8saDDO/9zs5h2uifg+cRebUWQ5pWP5BF/s7CI1OLOieEjMtHlV+nRAc5a/9s/O8KM9B35evRDjTfZaVLFDCiy01MA+2hUBTg4LBUfcRyHfx6YnTT/p+QMJ2vsw3z/ifYtI2sxS9oERl2YuoMIGc7TZ1sWuamDelNzQWpFDgYv/zymNE1IzLm1T1KhCdIIZioiyN8vwDOA8QaJddGAAFhzW5d5x/j95rJvcrYw+zuGdZNtQqkcckjDGl03e9MZ1k1anP07F+6jd4QtCWRO8AIeCqRpeL8UBqcd7k8KGfp+vX/hw0XyCgPRu48CmBLfPPCqNGHGsfwhLA98mfwmrO6sxosMyedzXy0fNSIy1fveN/qheHu+gLFf9PgPecU+XFTeibZylwtDVZ3jTbrHXyuVIZHWQalMIIGoTCCBImgAwIBAgIQDKi2VHuJ5tIGiXXNi5uJ4jANBgkqhkiG9w0BAQsFADBsMQswCQYDVQQGEwJVUzEjMCEGA1UEChMaQWRvYmUgU3lzdGVtcyBJbmNvcnBvcmF0ZWQxHTAbBgNVBAsTFEFkb2JlIFRydXN0IFNlcnZpY2VzMRkwFwYDVQQDExBBZG9iZSBSb290IENBIEcyMB4XDTE2MTEyOTAwMDAwMFoXDTQxMTEyODIzNTk1OVowdTELMAkGA1UEBhMCVVMxIzAhBgNVBAoTGkFkb2JlIFN5c3RlbXMgSW5jb3Jwb3JhdGVkMR0wGwYDVQQLExRBZG9iZSBUcnVzdCBTZXJ2aWNlczEiMCAGA1UEAxMZQWRvYmUgUHJvZHVjdCBTZXJ2aWNlcyBHMzCCAiIwDQYJKoZIhvcNAQEBBQADggIPADCCAgoCggIBALcfLr29CbNcSGz+DIOubAHqUXglpIA+iaexsohk2vaJdoH5+R3zlfx4mI2Yjs/k7hxVPg1zWnfOsRKoFXhlTJbyBxnvxB3CgcbxA13ZU1wecyBJH5dP0hp+yer01/DDcm30oveXkA1DmfX4wmqvjwRY0uWX3jZs4v8kfjLANIyiqFmq0kQhRRQaVBUFnwIC8lzssTp10DkLnY8TY+lrtF9CAdd/iB9dVnCnFhFlzOI+I4eoS8tvQndxKFRt6MXFXpzBfxDIA9rV48eDVG0zQdf4PfjEejcOTIaeZP4N2rTRMQMYbboAvk90g0oUhCX7NqrookVB7V90YTnCtbNTiYE+bNrPcRsuf7sVaXACGitiogyV1t8cTfJ1z5pNTUlbv5sbX2qa+E70iW4a1O1AN6oUGPZ+Dp9rGx9V9U8Puy03pPCggOWQ4IThET4iKfybfPd6qL9WxOayZGoHFYNFqo4fPTYQmgQPFckbd6L5RsginTVdlC925+b3RbE5O6qpqfZmpM9f0rlV2MSH+i+vvEVzmrV1mj5JrnLixNUzznj+0tTeSU6BQrPNJdg9hLcaEFxgkePCv3E1Eec1f30PoXSDs6KNJxZ++2PGHXdpO/8fQRO/KZqHjJ8OlV2H1wrlhII+qe46Wy6MUDKFjAlc5YO9llTYSRZUsOGg/H3Ons3hAgMBAAGjggE0MIIBMDASBgNVHRMBAf8ECDAGAQH/AgEAMDUGA1UdHwQuMCwwKqAooCaGJGh0dHA6Ly9jcmwuYWRvYmUuY29tL2Fkb2Jlcm9vdGcyLmNybDAOBgNVHQ8BAf8EBAMCAQYwFAYDVR0lBA0wCwYJKoZIhvcvAQEHMFcGA1UdIARQME4wTAYJKoZIhvcvAQIDMD8wPQYIKwYBBQUHAgEWMWh0dHBzOi8vd3d3LmFkb2JlLmNvbS9taXNjL3BraS9wcm9kX3N2Y2VfY3BzLmh0bWwwJAYDVR0RBB0wG6QZMBcxFTATBgNVBAMTDFNZTUMtNDA5Ni0zMzAdBgNVHQ4EFgQUVyl6Mk3M/uQ1TsAfJHPOc1Or32owHwYDVR0jBBgwFoAUphzhbVQkTKiPSHK/bqmM1eTsMdQwDQYJKoZIhvcNAQELBQADggIBAHHO5QeMptwt3MjgO2VeAJKBleuVICSvn2k4Xcl88bjapU0AZTslwRhcnr5Zt9wbBjtZgyX6M7si8k9vuyFcVhb1ucmDFfuUtTXgoTFyGZws1jV57oiEEnZjw/NkxFQpJ3kKRRE+DQ8EsaPP8pH8Oh8fH4bis9MI4Y5FjF5it3TWVyLmFXG8pxy8iTswPr1lN7B9k9Iz7RaexTd/RmZ3uGBtGlTJZx4bR4cWl1Qor9kVaEeMNULbyh0Kc3zzm0edwpe+Ii0rRlRSj8Ai2EUqWEReyer1Uv18VuC87zdm+lRCjnLyZjdy4acRUZd2GM1vncJ8LW7h1uliZZo332y5tTMSxRpRveWgs99V/MM6mDbL2/fuQF3L/C5evbS15jtTrbGP98CCzVBKeFS2UxN8Kpt5/ITJwpWYoismQkuy+BNJgpW8fgUUjB93laOo4L3uNf3ytxUDOEAjSJKRrOxY4y8vqbQvicslqnH7zkaxVfxjoAeYQ/huYISXCKXooA/5R7AkWLDmubBXakRIcCFi5klrTcHy2XSd3ZAnO8kaZt4GpeqkX05GKcUzccSsrym5GiQ6MUfb7Vqwt4ja0HfVb8Qt017bs6B26rpnqoHAKnn1hfburJ0OEPRZF83riQKzbkrzyIYAY1bYIB9MNL5v5ZgkGIgv2NdhngsX4GJS9927Y3BhZFkLuwAAAAAAAAAAAAAAAAAAAAAAAAAAAAAAAAAAAAAAAAAAAAAAAAAAAAAAAAAAAAAAAAAAAAAAAAAAAAAAAAAAAAAAAAAAAAAAAAAAAAAAAAAAAAAAAAAAAAAAAAAAAAAAAAAAAAAAAAAAAAAAAAAAAAAAAAAAAAAAAAAAAAAAAAAAAAAAAAAAAAAAAAAAAAAAAAAAAAAAAAAAAAAAAAAAAAAAAAAAAAAAAAAAAAAAAAAAAAAAAAAAAAAAAAAAAAAAAAAAAAAAAAAAAAAAAAAAAAAAAAAAAAAAAAAAAAAAAAAAAAAAAAAAAAAAAAAAAAAAAAAAAAAAAAAAAAAAAAAAAAAAAAAAAAAAAAAAAAAAAAAAAAAAAAAAAAAAAAAAAAAAAAAAAAAAAAAAAAAAAAAAAAAAAAAAAAAAAAAAAAAAAAAAAAAAAAAAAAAAAAAAAAAAAAAAAAAAAAAAAAAAAAAAAAAAAAAAAAAAAAAAAAAAAAAAAAAAAAAAAAAAAAAAAAAAAAAAAAAAAAAAAAAAAAAAAAAAAAAAAAAAAAAAAAAAAAAAAAAAAAAAAAAAAAAAAAAAAAAAAAAAAAAAAAAAAAAAAAAAAAAAAAAAAAAAAAAAAAAAAAAAAAAAAAAAAAAAAAAAAAAAAAAAAAAAAAAAAAAAAAAAAAAAAAAAAAAAAAAAAAAAAAAAAAAAAAAAAAAAAAAAAAAAAAAAAAAAAAAAAAAAAAAAAAAAAAAAAAAAAAAAAAAAAAAAAAAAAAAAAAAAAAAAAAAAAAAAAAAAAAAAAAAAAAAAAAAAAAAAAAAAAAAAAAAAAAAAAAAAAAAAAAAAAAAAAAAAAAAAAAAAAAAAAAAAAAAAAAAAAAAAAAAAAAAAAAAAAAAAAAAAAAAAAAAAAAAAAAAAAAAAAAAAAAAAAAAAAAAAAAAAAAAAAAAAAAAAAAAAAAAAAAAAAAAAAAAAAAAAAAAAAAAAAAAAAAAAAAAAAAAAAAAAAAAAAAAAAAAAAAAAAAAAAAAAAAAAAAAAAAAAAAAAAAAAAAAAAAAAAAAAAAAAAAAAAAAAAAAAAAAAAAAAAAAAAAAAAAAAAAAAAAAAAAAAAAAAAAAAAAAAAAAAAAAAAAAAAAAAAAAAAAAAAAAAAAAAAAAAAAAAAAAAAAAAAAAAAAAAAAAAAAAAAAAAAAAAAAAAAAAAAAAAAAAAAAAAAAAAAAAAAAAAAAAAAAAAAAAAAAAAAAAAAAAAAAAAAAAAAAAAAAAAAAAAAAAAAAAAAAAAAAAAAAAAAAAAAAAAAAAAAAAAAAAAAAAAAAAAAAAAAAAAAAAAAAAAAAAAAAAAAAAAAAAAAAAAAAAAAAAAAAAAAAAAAAAAAAAAAAAAAAAAAAAAAAAAAAAAAAAAAAAAAAAAAAAAAAAAAAAAAAAAAAAAAAAAAAAAAAAAAAAAAAAAAAAAAAAAAAAAAAAAAAAAAAAAAAAAAAAAAAAAAAAAAAAAAAAAAAAAAAAAAAAAAAAAAAAAAAAAAAAAAAAAAAAAAAAAAAAAAAAAAAAAAAAAAAAAAAAAAAAAAAAAAAAAAAAAAAAAAAAAAAAAAAAAAAAAAAAAAAAAAAAAAAAAAAAAAAAAAAAAAAAAAAAAAAAAAAAAAAAAAAAAAAAAAAAAAAAAAAAAAAAAAAAAAAAAAAAAAAAAAAAAAAAAAAAAAAAAAAAAAAAAAAAAAAAAAAAAAAAAAAAAAAAAAAAAAAAAAAAAAAAAAAAAAAAAAAAAAAAAAAAAAAAAAAAAAAAAAAAAAAAAAAAAAAAAAAAAAAAAAAAAAAAAAAAAAAAAAAAAAAAAAAAAAAAAAAAAAAAAAAAAAAAAAAAAAAAAAAAAAAAAAAAAAAAAAAAAAAAAAAAAAAAAAAAAAAAAAAAAAAAAAAAAAAAAAAAAAAAAAAAAAAAAAAAAAAAAAAAAAAAAAAAAAAAAAAAAAAAAAAAAAAAAAAAAAAAAAAAAAAAAAAAAAAAAAAAAAAAAAAAAAAAAAAAAAAAAAAAAAAAAAAAAAAAAAAAAAAAAAAAAAAAAAAAAAAAAAAAAAAAAAAAAAAAAAAAAAAAAAAAAAAAAAAAAAAAAAAAAAAAAAAAAAAAAAAAAAAAAAAAAAAAAAAAAAAAAAAAAAAAAAAAAAAAAAAAAAAAAAAAAAAAAAAAAAAAAAAAAAAAAAAAAAAAAAAAAAAAAAAAAAAAAAAAAAAAAAAAAAAAAAAAAAAAAAAAAAAAAAAAAAAAAAAAAAAAAAAAAAAAAAAAAAAAAAAAAAAAAAAAAAAAAAAAAAAAAAAAAAAAAAAAAAAAAAAAAAAAAAAAAAAAAAAAAAAAAAAAAAAAAAAAAAAAAAAAAAAAAAAAAAAAAAAAAAAAAAAAAAAAAAAAAAAAAAAAAAAAAAAAAAAAAAAAAAAAAAAAAAAAAAAAAAAAAAAAAAAAAAAAAAAAAAAAAAAAAAAAAAAAAAAAAAAAAAAAAAAAAAAAAAAAAAAAAAAAAAAAAAAAAAAAAAAAAAAAAAAAAAAAAAAAAAAAAAAAAAAAAAAAAAAAAAAAAAAAAAAAAAAAAAAAAAAAAAAAAAAAAAAAAAAAAAAAAAAAAAAAAAAAAAAAAAAAAAAAAAAAAAAAAAAAAAAAAAAAAAAAAAAAAAAAAAAAAAAAAAAAAAAAAAAAAAAAAAAAAAAAAAAAAAAAAAAAAAAAAAAAAAAAAAAAAAAAAAAAAAAAAAAAAAAAAAAAAAAAAAAAAAAAAAAAAAAAAAAAAAAAAAAAAAAAAAAAAAAAAAAAAAAAAAAAAAAAAAAAAAAAAAAAAAAAAAAAAAAAAAAAAAAAAAAAAAAAAAAAAAAAAAAAAAAAAAAAAAAAAAAAAAAAAAAAAAAAAAAAAAAAAAAAAAAAAAAAAAAAAAAAAAAAAAAAAAAAAAAAAAAAAAAAAAAAAAAAAAAAAAAAAAAAAAAAAAAAAAAAAAAAAAAAAAAAAAAAAAAAAAAAAAAAAAAAAAAAAAAAAAAAAAAAAAAAAAAAAAAAAAAAAAAAAAAAAAAAAAAAAAAAAAAAAAAAAAAAAAAAAAAAAAAAAAAAAAAAAAAAAAAAAAAAAAAAAAAAAAAAAAAAAAAAAAAAAAAAAAAAAAAAAAAAAAAAAAAAAAAAAAAAAAAAAAAAAAAAAAAAAAAAAAAAAAAAAAAAAAAAAAAAAAAAAAAAAAAAAAAAAAAAAAAAAAAAAAAAAAAAAAAAAAAAAAAAAAAAAAAAAAAAAAAAAAAAAAAAAAAAAAAAAAAAAAAAAAAAAAAAAAAAAAAAAAAAAAAAAAAAAAAAAAAAAAAAAAAAAAAAAAAAAAAAAAAAAAAAAAAAAAAAAAAAAAAAAAAAAAAAAAAAAAAAAAAAAAAAAAAAAAAAAAAAAAAAAAAAAAAAAAAAAAAAAAAAAAAAAAAAAAAAAAAAAAAAAAAAAAAAAAAAAAAAAAAAAAAAAAAAAAAAAAAAAAAAAAAAAAAAAAAAAAAAAAAAAAAAAAAAAAAAAAAAAAAAAAAAAAAAAAAAAAAAAAAAAAAAAAAAAAAAAAAAAAAAAAAAAAAAAAAAAAAAAAAAAAAAAAAAAAAAAAAAAAAAAAAAAAAAAAAAAAAAAAAAAAAAAAAAAAAAAAAAAAAAAAAAAAAAAAAAAAAAAAAAAAAAAAAAAAAAAAAAAAAAAAAAAAAAAAAAAAAAAAAAAAAAAAAAAAAAAAAAAAAAAAAAAAAAAAAAAAAAAAAAAAAAAAAAAAAAAAAAAAAAAAAAAAAAAAAAAAAAAAAAAAAAAAAAAAAAAAAAAAAAAAAAAAAAAAAAAAAAAAAAAAAAAAAAAAAAAAAAAAAAAAAAAAAAAAAAAAAAAAAAAAAAAAAAAAAAAAAAAAAAAAAAAAAAAAAAAAAAAAAAAAAAAAAAAAAAAAAAAAAAAAAAAAAAAAAAAAAAAAAAAAAAAAAAAAAAAAAAAAAAAAAAAAAAAAAAAAAAAAAAAAAAAAAAAAAAAAAAAAAAAAAAAAAAAAAAAAAAAAAAAAAAAAAAAAPZZAQBSxrFc/usgYCUgCXnVFTX/vJ68Z1CiU/4GLJs3R59/L2wnh0/nXLvnLlk335C6ABtprOQ3FFWbB2JukXtEe1S25H6dHXgMn6uuVKFkzDqZeeVMvuuIsYGDpeo0pIEFBGjNgLC6zoB4z5imyNOdipfIM8AakN/YWtXZSIewNVaLhb0hrrnCMc9vmU5fB3RVHDpLcEVuKLCSIfycjYnaj/5b+5k+D5UBzbLmtMzCV8Gnqslo3K2ERtI/WRPtELbn1l/zL5kRLz5RYWZsfc9DF4mMXsZyB12NoJbdoHjA8qh5hRYs7Nwv68NiOU1V8ViOdwWhTcy7LqP/P2jy1KKupzd3</c2pa:manifest></metadata>
  <defs>
    <style>
      .cls-1 {
        stroke-width: 0px;
      }
    </style>
  </defs>
  <g id="Dock-Black">
    <path class="cls-1" d="m107.27,397.43h297.46l-36.59-141.23v-32.09h3.81c5.46,0,9.91-4.44,9.91-9.91v-6.69c0-5.46-4.45-9.9-9.91-9.9h-3.81v-4.65c0-7.3-5.94-13.24-13.25-13.24h-.59c-7.3,0-13.24,5.94-13.24,13.24v4.65h-3.83c-2.29,0-4.39.78-6.06,2.09l-19.5-31.24v-16.42h2.33c4.84,0,8.78-3.94,8.78-8.78v-5.42c0-4.84-3.94-8.78-8.78-8.78h-2.33v-3c0-6.34-5.16-11.49-11.49-11.49h-.48c-6.34,0-11.49,5.15-11.49,11.49v3h-2.34c-4.84,0-8.78,3.94-8.78,8.78v5.42c0,4.84,3.94,8.78,8.78,8.78h2.34v13.57h-64.42v-13.57h2.33c4.84,0,8.78-3.94,8.78-8.78v-5.42c0-4.84-3.94-8.78-8.78-8.78h-2.33v-3c0-6.34-5.16-11.49-11.49-11.49h-.48c-6.33,0-11.49,5.15-11.49,11.49v3h-2.34c-4.84,0-8.78,3.94-8.78,8.78v5.42c0,4.84,3.94,8.78,8.78,8.78h2.34v16.39l-19.44,30.32c-1.69-1.34-3.82-2.14-6.13-2.14h-3.82v-4.65c0-7.3-5.94-13.24-13.24-13.24h-.59c-7.31,0-13.25,5.94-13.25,13.24v4.65h-3.83c-5.46,0-9.9,4.44-9.9,9.9v6.69c0,5.47,4.44,9.91,9.9,9.91h3.83v33.09l-36.59,141.23Zm287.12-8H117.61l17.3-66.76h242.18l17.3,66.76Zm-59.06-181.92c0-1.05.85-1.9,1.9-1.9h34.72c1.05,0,1.91.85,1.91,1.9v6.69c0,1.05-.86,1.91-1.91,1.91h-34.72c-1.05,0-1.9-.86-1.9-1.91v-6.69Zm11.56,24.7c.12-2.5.53-4.71,1.13-7.1.62,2.13.87,4.69,1.2,6.82.29,1.05.94,2.19,1.02,3.44.12,3.78.29,7.15-1.06,10.79-.97,2.1-1.34,4.3-1.93,6.55-.66-2.29-.88-4.88-.33-7.21.56-3.08.31-6.82.49-9.96.02-1.09-.47-2.09-.52-3.33Zm-61.02-88.17c-.43,0-.78-.35-.78-.78v-5.42c0-.43.35-.78.78-.78h28.13c.43,0,.78.34.78.78v5.42c0,.44-.35.78-.78.78h-28.13Zm6.71,11.09c.12-1.29.37-2.45.77-3.67.41,1.11.6,2.42.79,3.56,1.14,3.52.11,7.35-1.04,10.84-1.11-3.41-.16-7.11-.52-10.73Zm-94.59-11.09c-.43,0-.78-.35-.78-.78v-5.42c0-.43.35-.78.78-.78h28.13c.44,0,.78.34.78.78v5.42c0,.44-.34.78-.78.78h-28.13Zm6.92,11.09c.12-1.29.37-2.45.77-3.67.41,1.11.6,2.42.79,3.56,1.14,3.52.11,7.35-1.04,10.84-1.11-3.41-.16-7.11-.52-10.73Zm1.61,18.48h98.93l11.88,19.04h-123.03l12.22-19.04Zm-21.86,39.59v-5.52l4.51-7.03h133.16l5,8.01v5.54c0,5.47,4.44,9.91,9.9,9.91h3.83v2.52h-170.12v-3.52h3.82c5.46,0,9.9-4.44,9.9-9.91Zm156.4,21.43v18.08h-170.12v-18.08h170.12Zm-201.03-19.52c-1.05,0-1.9-.86-1.9-1.91v-6.69c0-1.05.85-1.9,1.9-1.9h34.73c1.05,0,1.9.85,1.9,1.9v6.69c0,1.05-.85,1.91-1.9,1.91h-34.73Zm9.26,17.1c.12-2.5.53-4.71,1.13-7.1.62,2.13.87,4.69,1.2,6.82.29,1.05.94,2.19,1.02,3.44.12,3.78.29,7.15-1.06,10.79-.97,2.1-1.34,4.3-1.93,6.55-.66-2.29-.88-4.88-.33-7.21.56-3.08.31-6.82.49-9.96.01-1.09-.47-2.09-.52-3.33Zm1.67,28.5h210.08l13.98,53.96h-238.04l13.98-53.96Z"/>
    <path class="cls-1" d="m65.99,244.23c4.41,0,6.41,1.7,9.17,4.05,3.12,2.65,7,5.95,14.36,5.95s11.23-3.3,14.35-5.95c2.76-2.35,4.76-4.05,9.17-4.05s6.41,1.7,9.17,4.05c.77.65,1.58,1.34,2.48,2.02v-10.29c-2.73-2-6.25-3.78-11.65-3.78-7.35,0-11.23,3.3-14.35,5.95-2.76,2.35-4.76,4.05-9.17,4.05s-6.41-1.7-9.17-4.05c-3.12-2.65-7-5.95-14.36-5.95s-11.24,3.3-14.36,5.95c-2.76,2.35-4.76,4.05-9.17,4.05v8c7.35,0,11.24-3.3,14.36-5.95,2.76-2.35,4.76-4.05,9.17-4.05Z"/>
    <path class="cls-1" d="m65.99,193.56c4.41,0,6.41,1.7,9.17,4.05,3.12,2.65,7,5.95,14.36,5.95s11.23-3.3,14.35-5.95c2.76-2.35,4.76-4.05,9.17-4.05s6.41,1.7,9.17,4.05c.79.67,1.59,1.35,2.48,2.02v-10.29c-2.73-2-6.25-3.78-11.65-3.78-7.35,0-11.23,3.3-14.35,5.95-2.76,2.35-4.76,4.05-9.17,4.05s-6.41-1.7-9.17-4.05c-3.12-2.65-7-5.95-14.36-5.95s-11.24,3.3-14.36,5.95c-2.76,2.35-4.76,4.05-9.17,4.05v8c7.35,0,11.24-3.3,14.36-5.95,2.76-2.35,4.76-4.05,9.17-4.05Z"/>
    <path class="cls-1" d="m65.99,218.9c4.41,0,6.41,1.7,9.17,4.05,3.12,2.65,7,5.95,14.36,5.95s11.23-3.3,14.35-5.95c2.76-2.35,4.76-4.05,9.17-4.05s6.41,1.7,9.17,4.05c.77.65,1.58,1.34,2.48,2.02v-10.29c-2.73-2-6.25-3.78-11.65-3.78-7.35,0-11.23,3.3-14.35,5.95-2.76,2.35-4.76,4.05-9.17,4.05s-6.41-1.7-9.17-4.05c-3.12-2.65-7-5.95-14.36-5.95s-11.24,3.3-14.36,5.95c-2.76,2.35-4.76,4.05-9.17,4.05v8c7.35,0,11.24-3.3,14.36-5.95,2.76-2.35,4.76-4.05,9.17-4.05Z"/>
    <path class="cls-1" d="m122.21,298.96c.77.65,1.58,1.34,2.48,2.02v-10.29c-2.73-2-6.25-3.78-11.65-3.78-7.35,0-11.23,3.3-14.35,5.95-2.76,2.35-4.76,4.05-9.17,4.05s-6.41-1.7-9.17-4.05c-3.12-2.65-7-5.95-14.36-5.95s-11.24,3.3-14.36,5.95c-2.76,2.35-4.76,4.05-9.17,4.05v8c7.35,0,11.24-3.3,14.36-5.95,2.76-2.35,4.76-4.05,9.17-4.05s6.41,1.7,9.17,4.05c3.12,2.65,7,5.95,14.36,5.95s11.23-3.3,14.35-5.95c2.76-2.35,4.76-4.05,9.17-4.05s6.41,1.7,9.17,4.05Z"/>
    <path class="cls-1" d="m65.99,269.57c4.41,0,6.41,1.7,9.17,4.05,3.12,2.65,7,5.95,14.36,5.95s11.23-3.3,14.35-5.95c2.76-2.35,4.76-4.05,9.17-4.05s6.41,1.7,9.17,4.05c.77.65,1.58,1.34,2.48,2.02v-10.29c-2.73-2-6.25-3.78-11.65-3.78-7.35,0-11.23,3.3-14.35,5.95-2.76,2.35-4.76,4.05-9.17,4.05s-6.41-1.7-9.17-4.05c-3.12-2.65-7-5.95-14.36-5.95s-11.24,3.3-14.36,5.95c-2.76,2.35-4.76,4.05-9.17,4.05v8c7.35,0,11.24-3.3,14.36-5.95,2.76-2.35,4.76-4.05,9.17-4.05Z"/>
    <path class="cls-1" d="m65.99,168.22c4.41,0,6.41,1.7,9.17,4.05,3.12,2.65,7,5.95,14.36,5.95s11.23-3.3,14.35-5.95c2.76-2.35,4.76-4.05,9.17-4.05s6.41,1.7,9.17,4.05c3.12,2.65,7,5.95,14.35,5.95s11.23-3.3,14.35-5.95c2.76-2.35,4.76-4.05,9.17-4.05s6.41,1.7,9.17,4.05c3.12,2.65,7,5.95,14.35,5.95v-8c-4.41,0-6.41-1.7-9.17-4.05-3.12-2.65-7-5.95-14.35-5.95s-11.23,3.3-14.35,5.95c-2.76,2.35-4.76,4.05-9.17,4.05s-6.41-1.7-9.17-4.05c-3.12-2.65-7-5.95-14.35-5.95s-11.23,3.3-14.35,5.95c-2.76,2.35-4.76,4.05-9.17,4.05s-6.41-1.7-9.17-4.05c-3.12-2.65-7-5.95-14.36-5.95s-11.24,3.3-14.36,5.95c-2.76,2.35-4.76,4.05-9.17,4.05v8c7.35,0,11.24-3.3,14.36-5.95,2.76-2.35,4.76-4.05,9.17-4.05Z"/>
    <path class="cls-1" d="m446.01,236.23c-7.35,0-11.24,3.3-14.36,5.95-2.76,2.35-4.76,4.05-9.17,4.05s-6.41-1.7-9.17-4.05c-3.12-2.65-7-5.95-14.35-5.95-5.4,0-8.93,1.78-11.65,3.78v10.29c.9-.67,1.71-1.36,2.48-2.02,2.76-2.35,4.76-4.05,9.17-4.05s6.41,1.7,9.17,4.05c3.12,2.65,7,5.95,14.35,5.95s11.24-3.3,14.36-5.95c2.76-2.35,4.76-4.05,9.17-4.05s6.41,1.7,9.17,4.05c3.12,2.65,7,5.95,14.36,5.95v-8c-4.41,0-6.41-1.7-9.17-4.05-3.12-2.65-7-5.95-14.36-5.95Z"/>
    <path class="cls-1" d="m446.01,185.56c-7.35,0-11.24,3.3-14.36,5.95-2.76,2.35-4.76,4.05-9.17,4.05s-6.41-1.7-9.17-4.05c-3.12-2.65-7-5.95-14.35-5.95-5.4,0-8.92,1.78-11.65,3.78v10.29c.89-.67,1.7-1.35,2.48-2.02,2.76-2.35,4.76-4.05,9.17-4.05s6.41,1.7,9.17,4.05c3.12,2.65,7,5.95,14.35,5.95s11.24-3.3,14.36-5.95c2.76-2.35,4.76-4.05,9.17-4.05s6.41,1.7,9.17,4.05c3.12,2.65,7,5.95,14.36,5.95v-8c-4.41,0-6.41-1.7-9.17-4.05-3.12-2.65-7-5.95-14.36-5.95Z"/>
    <path class="cls-1" d="m446.01,210.9c-7.35,0-11.24,3.3-14.36,5.95-2.76,2.35-4.76,4.05-9.17,4.05s-6.41-1.7-9.17-4.05c-3.12-2.65-7-5.95-14.35-5.95-5.4,0-8.93,1.78-11.65,3.78v10.29c.9-.67,1.71-1.36,2.48-2.02,2.76-2.35,4.76-4.05,9.17-4.05s6.41,1.7,9.17,4.05c3.12,2.65,7,5.95,14.35,5.95s11.24-3.3,14.36-5.95c2.76-2.35,4.76-4.05,9.17-4.05s6.41,1.7,9.17,4.05c3.12,2.65,7,5.95,14.36,5.95v-8c-4.41,0-6.41-1.7-9.17-4.05-3.12-2.65-7-5.95-14.36-5.95Z"/>
    <path class="cls-1" d="m446.01,286.91c-7.35,0-11.24,3.3-14.36,5.95-2.76,2.35-4.76,4.05-9.17,4.05s-6.41-1.7-9.17-4.05c-3.12-2.65-7-5.95-14.35-5.95-5.4,0-8.93,1.78-11.65,3.78v10.29c.9-.67,1.71-1.36,2.48-2.02,2.76-2.35,4.76-4.05,9.17-4.05s6.41,1.7,9.17,4.05c3.12,2.65,7,5.95,14.35,5.95s11.24-3.3,14.36-5.95c2.76-2.35,4.76-4.05,9.17-4.05s6.41,1.7,9.17,4.05c3.12,2.65,7,5.95,14.36,5.95v-8c-4.41,0-6.41-1.7-9.17-4.05-3.12-2.65-7-5.95-14.36-5.95Z"/>
    <path class="cls-1" d="m446.01,261.57c-7.35,0-11.24,3.3-14.36,5.95-2.76,2.35-4.76,4.05-9.17,4.05s-6.41-1.7-9.17-4.05c-3.12-2.65-7-5.95-14.35-5.95-5.4,0-8.93,1.78-11.65,3.78v10.29c.9-.67,1.71-1.36,2.48-2.02,2.76-2.35,4.76-4.05,9.17-4.05s6.41,1.7,9.17,4.05c3.12,2.65,7,5.95,14.35,5.95s11.24-3.3,14.36-5.95c2.76-2.35,4.76-4.05,9.17-4.05s6.41,1.7,9.17,4.05c3.12,2.65,7,5.95,14.36,5.95v-8c-4.41,0-6.41-1.7-9.17-4.05-3.12-2.65-7-5.95-14.36-5.95Z"/>
    <path class="cls-1" d="m460.37,166.17c-3.12-2.65-7-5.95-14.36-5.95s-11.24,3.3-14.36,5.95c-2.76,2.35-4.76,4.05-9.17,4.05s-6.41-1.7-9.17-4.05c-3.12-2.65-7-5.95-14.35-5.95s-11.23,3.3-14.35,5.95c-2.76,2.35-4.76,4.05-9.17,4.05s-6.41-1.7-9.17-4.05c-3.12-2.65-7-5.95-14.35-5.95s-11.23,3.3-14.35,5.95c-2.76,2.35-4.76,4.05-9.17,4.05v8c7.35,0,11.23-3.3,14.35-5.95,2.76-2.35,4.76-4.05,9.17-4.05s6.41,1.7,9.17,4.05c3.12,2.65,7,5.95,14.35,5.95s11.23-3.3,14.35-5.95c2.76-2.35,4.76-4.05,9.17-4.05s6.41,1.7,9.17,4.05c3.12,2.65,7,5.95,14.35,5.95s11.24-3.3,14.36-5.95c2.76-2.35,4.76-4.05,9.17-4.05s6.41,1.7,9.17,4.05c3.12,2.65,7,5.95,14.36,5.95v-8c-4.41,0-6.41-1.7-9.17-4.05Z"/>
  </g>
</svg>