<?xml version="1.0" encoding="utf-8"?>
<!-- Generator: Adobe Illustrator 28.0.0, SVG Export Plug-In . SVG Version: 6.00 Build 0)  -->
<svg version="1.1" id="Layer_1" xmlns="http://www.w3.org/2000/svg" xmlns:xlink="http://www.w3.org/1999/xlink" x="0px" y="0px"
	 viewBox="0 0 512 512" style="enable-background:new 0 0 512 512;" xml:space="preserve">
<g id="Coffee-Mug">
	<g id="Steam">
		<path d="M157.5,116.1h-10c0-6.9,3.5-10.5,6.1-13.2c2.3-2.4,3.3-3.5,3.3-6.3c0-2.7-1-3.9-3.3-6.3c-2.6-2.7-6.1-6.3-6.1-13.2
			c0-6.9,3.5-10.5,6.1-13.2c2.3-2.4,3.3-3.5,3.3-6.3h10c0,6.9-3.5,10.5-6.1,13.2c-2.3,2.4-3.3,3.5-3.3,6.3c0,2.7,1,3.9,3.3,6.3
			c2.6,2.7,6.1,6.3,6.1,13.2c0,6.9-3.5,10.5-6.1,13.2C158.5,112.3,157.5,113.4,157.5,116.1z"/>
		<path d="M215.1,116.1h-10c0-6.9,3.5-10.5,6.1-13.2c2.3-2.4,3.3-3.5,3.3-6.3c0-2.7-1-3.9-3.3-6.3c-2.6-2.7-6.1-6.3-6.1-13.2
			c0-6.9,3.5-10.5,6.1-13.2c2.3-2.4,3.3-3.5,3.3-6.2h10c0,6.9-3.5,10.5-6,13.2c-2.3,2.4-3.3,3.5-3.3,6.3c0,2.7,1,3.9,3.3,6.3
			c2.6,2.7,6.1,6.3,6.1,13.2c0,6.9-3.5,10.5-6.1,13.2C216.1,112.3,215.1,113.4,215.1,116.1z"/>
		<path d="M272.7,116.1h-10c0-6.9,3.5-10.5,6.1-13.2c2.3-2.4,3.3-3.5,3.3-6.3c0-2.7-1-3.9-3.3-6.3c-2.6-2.7-6.1-6.3-6.1-13.2
			c0-6.9,3.5-10.5,6.1-13.2c2.3-2.4,3.3-3.5,3.3-6.2h10c0,6.9-3.5,10.5-6,13.2c-2.3,2.4-3.3,3.5-3.3,6.3c0,2.7,1,3.9,3.3,6.3
			c2.6,2.7,6.1,6.3,6.1,13.2c0,6.9-3.5,10.5-6.1,13.2C273.7,112.3,272.7,113.4,272.7,116.1z"/>
	</g>
	<path id="Cup" d="M460.2,169.9c-3.5-8.2-9.8-15.1-18.3-19.9c-22.4-12.7-52.5-10.5-76.7,5.5c-1.5,1-2.9,2-4.4,3.1l0.6-23.9
		c0-1.1-0.9-2.1-2-2.1H70.1c-1.1,0-2,0.9-2,2.1l6.3,240c0.4,13.2,3.3,25.2,8.6,35.6c11,21.3,33.2,36.3,62.5,42.2
		c28.1,5.6,57.1,5.7,85.1,5.7h0.1c0.2,0,0.5,0,0.7,0c23.5,0,53.6-1.8,80.3-14.9c23-11.3,38.2-31.6,42.4-56.4
		c3.3,1.9,6.7,3.5,10.2,4.7c8.4,3,18.4,4.4,30.7,4.4c0.1,0,0.2,0,0.3,0c6.9,0,13-0.5,18.5-1.6c11-2.1,19.9-6.4,27.2-13.2
		c7.7-7.2,13.4-16.6,16-26.5c2.1-8.3,2.2-16.8,2.3-25.1c0-2.5,0-5,0.1-7.4c0.4-11.8,0.8-23.6,1.1-35.4l2.3-72.9l0,0
		c0.1-3,0.3-6,0.5-9.2C464.1,193,464.9,180.9,460.2,169.9L460.2,169.9z M182.3,423.6c-5.3,7.4-29,3.9-39.1,0
		c-14.1-5.5-37.1-13.9-39.4-41.7c-1.3-16.5-2.9-69.8-3.9-106.9c-0.2-6.9-6.3-52.6,7.9-49.1c4.9,1.2,8.8,6.4,11.4,10.4
		c9.1,13.9,9.7,28.1,9.9,44.1c0.3,16.6,0.6,33.3,1.2,49.9c0.6,15.7-0.9,35.2,4.3,50.3c4.5,13,17.2,21.9,28.7,28.2
		C166.1,410.3,185.7,418.9,182.3,423.6L182.3,423.6z M329.3,283.2c-0.2,6-3.3,37.5-14.5,25.7c-5.9-6.2-6.1-24.2-4.2-55.9
		c2-33.4-14.6-63-39-77.3c-2.3-1.4-6.8-3-10.4-5.2c-3.5-2.1-6.1-4.8-5.2-8.4c0.9-3.5,5.2-5,8.8-4.9c13.3,0.2,53.1-2.6,57.8,0.8
		c3.3,2.4,4.3,6.4,5.1,10.1c1.2,5.8,1.6,11.6,1.5,17.6C329.2,197.5,329.7,270.1,329.3,283.2L329.3,283.2z M422.2,348.4
		c-1.5,2.9-4.2,6.1-7.5,6.8c-11,2.2-20.5,2.9-28.9,2.1c-4.6-0.4-8.8-1.3-12.7-2.7c-8.2-2.8-16.9-9.5-16.9-19.5l0.1-2.5l2.7-96.3
		v-0.1c0-19,14.5-39.5,33.6-47.6c7.6-3.2,22.5-5.2,30.7-0.4c3.2,1.9,5,4.7,5.4,8.4C429.4,202.7,424.4,338.7,422.2,348.4L422.2,348.4
		z"/>
</g>
</svg>
